G04 #@! TF.FileFunction,Copper,L1,Top,Signal*
%FSLAX46Y46*%
G04 Gerber Fmt 4.6, Leading zero omitted, Abs format (unit mm)*
G04 Created by KiCad (PCBNEW 4.0.2-stable) date 13/03/2016 19:14:25*
%MOMM*%
G01*
G04 APERTURE LIST*
%ADD10C,0.100000*%
%ADD11C,0.150000*%
%ADD12C,1.300000*%
%ADD13R,1.300000X1.300000*%
%ADD14R,3.500120X3.500120*%
%ADD15R,2.032000X1.727200*%
%ADD16O,2.032000X1.727200*%
%ADD17R,1.727200X2.032000*%
%ADD18O,1.727200X2.032000*%
%ADD19R,1.727200X1.727200*%
%ADD20O,1.727200X1.727200*%
%ADD21C,1.524000*%
%ADD22C,2.750000*%
%ADD23C,0.750000*%
%ADD24C,0.500000*%
%ADD25C,0.250000*%
%ADD26C,0.254000*%
G04 APERTURE END LIST*
D10*
D11*
X177165000Y-64135000D02*
X177165000Y-138430000D01*
X177165000Y-64135000D02*
X93345000Y-64135000D01*
X172720000Y-138430000D02*
X177165000Y-138430000D01*
X93345000Y-138430000D02*
X172720000Y-138430000D01*
X93345000Y-64135000D02*
X93345000Y-138430000D01*
D12*
X98425000Y-114340000D03*
D13*
X98425000Y-116840000D03*
D12*
X125730000Y-114340000D03*
D13*
X125730000Y-116840000D03*
D14*
X167640000Y-76685140D03*
X167640000Y-70685660D03*
X162941000Y-73685400D03*
D15*
X125730000Y-129540000D03*
D16*
X125730000Y-132080000D03*
X125730000Y-134620000D03*
D17*
X109220000Y-134620000D03*
D18*
X111760000Y-134620000D03*
X114300000Y-134620000D03*
X116840000Y-134620000D03*
D17*
X136525000Y-134620000D03*
D18*
X139065000Y-134620000D03*
X141605000Y-134620000D03*
X144145000Y-134620000D03*
D17*
X109220000Y-128905000D03*
D18*
X111760000Y-128905000D03*
X114300000Y-128905000D03*
X116840000Y-128905000D03*
D17*
X136525000Y-129540000D03*
D18*
X139065000Y-129540000D03*
X141605000Y-129540000D03*
X144145000Y-129540000D03*
D19*
X153670000Y-97790000D03*
D20*
X156210000Y-97790000D03*
X153670000Y-100330000D03*
X156210000Y-100330000D03*
D21*
X150389001Y-89771000D03*
X150389001Y-92311000D03*
X147849001Y-89771000D03*
X147849001Y-92311000D03*
X145309001Y-89771000D03*
X145309001Y-92311000D03*
X142769001Y-89771000D03*
X142769001Y-92311000D03*
X140229001Y-89771000D03*
X140229001Y-92311000D03*
X137689001Y-89771000D03*
X137689001Y-92311000D03*
X135149001Y-89771000D03*
X135149001Y-92311000D03*
X132609001Y-89771000D03*
X132609001Y-92311000D03*
X130069001Y-89771000D03*
X130069001Y-92311000D03*
X127529001Y-89771000D03*
X127529001Y-92311000D03*
X124989001Y-89771000D03*
X124989001Y-92311000D03*
X122449001Y-89771000D03*
X122449001Y-92311000D03*
X119909001Y-89771000D03*
X119909001Y-92311000D03*
X117369001Y-89771000D03*
X117369001Y-92311000D03*
X114829001Y-89771000D03*
X114829001Y-92311000D03*
X112289001Y-89771000D03*
X112289001Y-92311000D03*
X109749001Y-89771000D03*
X109749001Y-92311000D03*
X107209001Y-89771000D03*
X107209001Y-92311000D03*
X104669001Y-89771000D03*
X104669001Y-92311000D03*
X102129001Y-89771000D03*
X102129001Y-92311000D03*
D22*
X155342001Y-91041000D03*
X97303001Y-91041000D03*
X155342001Y-68054000D03*
X97303001Y-68054000D03*
D21*
X155575000Y-107315000D03*
X155575000Y-109855000D03*
X155575000Y-112395000D03*
X155575000Y-114935000D03*
X155575000Y-117475000D03*
X155575000Y-120015000D03*
X155575000Y-122555000D03*
X155575000Y-125095000D03*
X155575000Y-127635000D03*
X155575000Y-130175000D03*
X155575000Y-132715000D03*
X155575000Y-135255000D03*
X170815000Y-135255000D03*
X170815000Y-132715000D03*
X170815000Y-130175000D03*
X170815000Y-127635000D03*
X170815000Y-125095000D03*
X170815000Y-122555000D03*
X170815000Y-120015000D03*
X170815000Y-117475000D03*
X170815000Y-114935000D03*
X170815000Y-112395000D03*
X170815000Y-109855000D03*
X170815000Y-107315000D03*
X105537000Y-99060000D03*
X105537000Y-101600000D03*
X105537000Y-104140000D03*
X105537000Y-106680000D03*
X105537000Y-109220000D03*
X105537000Y-111760000D03*
X105537000Y-114300000D03*
X105537000Y-116840000D03*
X118157000Y-116680000D03*
X118157000Y-114180000D03*
X118157000Y-111680000D03*
X118157000Y-109180000D03*
X118157000Y-106680000D03*
X118157000Y-104180000D03*
X118157000Y-101680000D03*
X118157000Y-99180000D03*
X132842000Y-99060000D03*
X132842000Y-101600000D03*
X132842000Y-104140000D03*
X132842000Y-106680000D03*
X132842000Y-109220000D03*
X132842000Y-111760000D03*
X132842000Y-114300000D03*
X132842000Y-116840000D03*
X145462000Y-116680000D03*
X145462000Y-114180000D03*
X145462000Y-111680000D03*
X145462000Y-109180000D03*
X145462000Y-106680000D03*
X145462000Y-104180000D03*
X145462000Y-101680000D03*
X145462000Y-99180000D03*
X174879000Y-80772000D03*
X172339000Y-80772000D03*
X164211000Y-80772000D03*
X161671000Y-80772000D03*
X174879000Y-99314000D03*
X172339000Y-99314000D03*
X164211000Y-99314000D03*
X161671000Y-99314000D03*
D23*
X105537000Y-116840000D02*
X98425000Y-116840000D01*
X132842000Y-116840000D02*
X125730000Y-116840000D01*
X105537000Y-116840000D02*
X112395000Y-116840000D01*
X130302000Y-119380000D02*
X132842000Y-116840000D01*
X114935000Y-119380000D02*
X130302000Y-119380000D01*
X112395000Y-116840000D02*
X114935000Y-119380000D01*
X161671000Y-80772000D02*
X102743000Y-80772000D01*
X99695000Y-110998000D02*
X105537000Y-116840000D01*
X99695000Y-83820000D02*
X99695000Y-110998000D01*
X102743000Y-80772000D02*
X99695000Y-83820000D01*
X167640000Y-76685140D02*
X167640000Y-79375000D01*
X166243000Y-80772000D02*
X161671000Y-80772000D01*
X167640000Y-79375000D02*
X166243000Y-80772000D01*
X150389001Y-92311000D02*
X147849001Y-92311000D01*
X161671000Y-99314000D02*
X161671000Y-96901000D01*
X152058001Y-93980000D02*
X150389001Y-92311000D01*
X158750000Y-93980000D02*
X152058001Y-93980000D01*
X161671000Y-96901000D02*
X158750000Y-93980000D01*
X164211000Y-99314000D02*
X161671000Y-99314000D01*
X170815000Y-107315000D02*
X167005000Y-107315000D01*
X164211000Y-104521000D02*
X164211000Y-99314000D01*
X167005000Y-107315000D02*
X164211000Y-104521000D01*
D24*
X132842000Y-111760000D02*
X133350000Y-111760000D01*
D25*
X142769001Y-92311000D02*
X142769001Y-93239001D01*
X150495000Y-94615000D02*
X153670000Y-97790000D01*
X144145000Y-94615000D02*
X150495000Y-94615000D01*
X142769001Y-93239001D02*
X144145000Y-94615000D01*
X156210000Y-97790000D02*
X157480000Y-97790000D01*
X158115000Y-109855000D02*
X155575000Y-109855000D01*
X158750000Y-109220000D02*
X158115000Y-109855000D01*
X158750000Y-99060000D02*
X158750000Y-109220000D01*
X157480000Y-97790000D02*
X158750000Y-99060000D01*
X140229001Y-92311000D02*
X140229001Y-93239001D01*
X152400000Y-100330000D02*
X153670000Y-100330000D01*
X151765000Y-99695000D02*
X152400000Y-100330000D01*
X151765000Y-97155000D02*
X151765000Y-99695000D01*
X149860000Y-95250000D02*
X151765000Y-97155000D01*
X142240000Y-95250000D02*
X149860000Y-95250000D01*
X140229001Y-93239001D02*
X142240000Y-95250000D01*
X140229001Y-92311000D02*
X140571000Y-92311000D01*
X156210000Y-100330000D02*
X157480000Y-100330000D01*
X157480000Y-107315000D02*
X155575000Y-107315000D01*
X158115000Y-106680000D02*
X157480000Y-107315000D01*
X158115000Y-100965000D02*
X158115000Y-106680000D01*
X157480000Y-100330000D02*
X158115000Y-100965000D01*
X156210000Y-100965000D02*
X156210000Y-100330000D01*
X155575000Y-117475000D02*
X153035000Y-117475000D01*
X150495000Y-104213000D02*
X145462000Y-99180000D01*
X150495000Y-114935000D02*
X150495000Y-104213000D01*
X153035000Y-117475000D02*
X150495000Y-114935000D01*
X155575000Y-120015000D02*
X151765000Y-120015000D01*
X149860000Y-106078000D02*
X145462000Y-101680000D01*
X149860000Y-118110000D02*
X149860000Y-106078000D01*
X151765000Y-120015000D02*
X149860000Y-118110000D01*
X155575000Y-122555000D02*
X156845000Y-122555000D01*
X120182000Y-97155000D02*
X118157000Y-99180000D01*
X145415000Y-97155000D02*
X120182000Y-97155000D01*
X147320000Y-99060000D02*
X145415000Y-97155000D01*
X147320000Y-99695000D02*
X147320000Y-99060000D01*
X151130000Y-103505000D02*
X147320000Y-99695000D01*
X151130000Y-114300000D02*
X151130000Y-103505000D01*
X153035000Y-116205000D02*
X151130000Y-114300000D01*
X156845000Y-116205000D02*
X153035000Y-116205000D01*
X157480000Y-116840000D02*
X156845000Y-116205000D01*
X157480000Y-121920000D02*
X157480000Y-116840000D01*
X156845000Y-122555000D02*
X157480000Y-121920000D01*
X155575000Y-125095000D02*
X157480000Y-125095000D01*
X116840000Y-100363000D02*
X118157000Y-101680000D01*
X116840000Y-97790000D02*
X116840000Y-100363000D01*
X118110000Y-96520000D02*
X116840000Y-97790000D01*
X146050000Y-96520000D02*
X118110000Y-96520000D01*
X148590000Y-99060000D02*
X146050000Y-96520000D01*
X148590000Y-99695000D02*
X148590000Y-99060000D01*
X151765000Y-102870000D02*
X148590000Y-99695000D01*
X151765000Y-112395000D02*
X151765000Y-102870000D01*
X153035000Y-113665000D02*
X151765000Y-112395000D01*
X156845000Y-113665000D02*
X153035000Y-113665000D01*
X158115000Y-114935000D02*
X156845000Y-113665000D01*
X158115000Y-124460000D02*
X158115000Y-114935000D01*
X157480000Y-125095000D02*
X158115000Y-124460000D01*
X145462000Y-109180000D02*
X145462000Y-109267000D01*
X145462000Y-109267000D02*
X149225000Y-113030000D01*
X150495000Y-127635000D02*
X155575000Y-127635000D01*
X149225000Y-126365000D02*
X150495000Y-127635000D01*
X149225000Y-113030000D02*
X149225000Y-126365000D01*
X118157000Y-109180000D02*
X120610000Y-109180000D01*
X144232000Y-107950000D02*
X145462000Y-109180000D01*
X121840000Y-107950000D02*
X144232000Y-107950000D01*
X120610000Y-109180000D02*
X121840000Y-107950000D01*
X145462000Y-111680000D02*
X145462000Y-111807000D01*
X145462000Y-111807000D02*
X148590000Y-114935000D01*
X149860000Y-130175000D02*
X155575000Y-130175000D01*
X148590000Y-128905000D02*
X149860000Y-130175000D01*
X148590000Y-114935000D02*
X148590000Y-128905000D01*
X118157000Y-111680000D02*
X120570000Y-111680000D01*
X144272000Y-110490000D02*
X145462000Y-111680000D01*
X121760000Y-110490000D02*
X144272000Y-110490000D01*
X120570000Y-111680000D02*
X121760000Y-110490000D01*
X145462000Y-114180000D02*
X146565000Y-114180000D01*
X149225000Y-132715000D02*
X155575000Y-132715000D01*
X147955000Y-131445000D02*
X149225000Y-132715000D01*
X147955000Y-115570000D02*
X147955000Y-131445000D01*
X146565000Y-114180000D02*
X147955000Y-115570000D01*
X118157000Y-114180000D02*
X120770000Y-114180000D01*
X144312000Y-113030000D02*
X145462000Y-114180000D01*
X121920000Y-113030000D02*
X144312000Y-113030000D01*
X120770000Y-114180000D02*
X121920000Y-113030000D01*
X155575000Y-135255000D02*
X149860000Y-135255000D01*
X147320000Y-118538000D02*
X145462000Y-116680000D01*
X147320000Y-132715000D02*
X147320000Y-118538000D01*
X149860000Y-135255000D02*
X147320000Y-132715000D01*
X118157000Y-116680000D02*
X122080000Y-116680000D01*
X144352000Y-115570000D02*
X145462000Y-116680000D01*
X123190000Y-115570000D02*
X144352000Y-115570000D01*
X122080000Y-116680000D02*
X123190000Y-115570000D01*
X105537000Y-101600000D02*
X105537000Y-101473000D01*
X105537000Y-101473000D02*
X111125000Y-95885000D01*
X164465000Y-111125000D02*
X170815000Y-117475000D01*
X153670000Y-111125000D02*
X164465000Y-111125000D01*
X152400000Y-109855000D02*
X153670000Y-111125000D01*
X152400000Y-102235000D02*
X152400000Y-109855000D01*
X149860000Y-99695000D02*
X152400000Y-102235000D01*
X149860000Y-99060000D02*
X149860000Y-99695000D01*
X146685000Y-95885000D02*
X149860000Y-99060000D01*
X111125000Y-95885000D02*
X146685000Y-95885000D01*
X105537000Y-101600000D02*
X111125000Y-101600000D01*
X131572000Y-102870000D02*
X132842000Y-101600000D01*
X112395000Y-102870000D02*
X131572000Y-102870000D01*
X111125000Y-101600000D02*
X112395000Y-102870000D01*
X145462000Y-106680000D02*
X145462000Y-104180000D01*
X118157000Y-104180000D02*
X118157000Y-106680000D01*
X118157000Y-106680000D02*
X120650000Y-106680000D01*
X120650000Y-106680000D02*
X121920000Y-105410000D01*
X121920000Y-105410000D02*
X144192000Y-105410000D01*
X144192000Y-105410000D02*
X145462000Y-106680000D01*
D26*
G36*
X176455000Y-137720000D02*
X94055000Y-137720000D01*
X94055000Y-133604000D01*
X107708960Y-133604000D01*
X107708960Y-135636000D01*
X107753238Y-135871317D01*
X107892310Y-136087441D01*
X108104510Y-136232431D01*
X108356400Y-136283440D01*
X110083600Y-136283440D01*
X110318917Y-136239162D01*
X110535041Y-136100090D01*
X110680031Y-135887890D01*
X110699232Y-135793073D01*
X110857964Y-135970732D01*
X111385209Y-136224709D01*
X111400974Y-136227358D01*
X111633000Y-136106217D01*
X111633000Y-134747000D01*
X111887000Y-134747000D01*
X111887000Y-136106217D01*
X112119026Y-136227358D01*
X112134791Y-136224709D01*
X112662036Y-135970732D01*
X113030000Y-135558892D01*
X113397964Y-135970732D01*
X113925209Y-136224709D01*
X113940974Y-136227358D01*
X114173000Y-136106217D01*
X114173000Y-134747000D01*
X111887000Y-134747000D01*
X111633000Y-134747000D01*
X111613000Y-134747000D01*
X111613000Y-134493000D01*
X111633000Y-134493000D01*
X111633000Y-133133783D01*
X111887000Y-133133783D01*
X111887000Y-134493000D01*
X114173000Y-134493000D01*
X114173000Y-133133783D01*
X114427000Y-133133783D01*
X114427000Y-134493000D01*
X114447000Y-134493000D01*
X114447000Y-134747000D01*
X114427000Y-134747000D01*
X114427000Y-136106217D01*
X114659026Y-136227358D01*
X114674791Y-136224709D01*
X115202036Y-135970732D01*
X115573539Y-135554931D01*
X115780330Y-135864415D01*
X116266511Y-136189271D01*
X116840000Y-136303345D01*
X117413489Y-136189271D01*
X117899670Y-135864415D01*
X118224526Y-135378234D01*
X118303933Y-134979026D01*
X124122642Y-134979026D01*
X124125291Y-134994791D01*
X124379268Y-135522036D01*
X124815680Y-135911954D01*
X125368087Y-136105184D01*
X125603000Y-135960924D01*
X125603000Y-134747000D01*
X125857000Y-134747000D01*
X125857000Y-135960924D01*
X126091913Y-136105184D01*
X126644320Y-135911954D01*
X127080732Y-135522036D01*
X127334709Y-134994791D01*
X127337358Y-134979026D01*
X127216217Y-134747000D01*
X125857000Y-134747000D01*
X125603000Y-134747000D01*
X124243783Y-134747000D01*
X124122642Y-134979026D01*
X118303933Y-134979026D01*
X118338600Y-134804745D01*
X118338600Y-134435255D01*
X118224526Y-133861766D01*
X117899670Y-133375585D01*
X117413489Y-133050729D01*
X116840000Y-132936655D01*
X116266511Y-133050729D01*
X115780330Y-133375585D01*
X115573539Y-133685069D01*
X115202036Y-133269268D01*
X114674791Y-133015291D01*
X114659026Y-133012642D01*
X114427000Y-133133783D01*
X114173000Y-133133783D01*
X113940974Y-133012642D01*
X113925209Y-133015291D01*
X113397964Y-133269268D01*
X113030000Y-133681108D01*
X112662036Y-133269268D01*
X112134791Y-133015291D01*
X112119026Y-133012642D01*
X111887000Y-133133783D01*
X111633000Y-133133783D01*
X111400974Y-133012642D01*
X111385209Y-133015291D01*
X110857964Y-133269268D01*
X110701093Y-133444845D01*
X110686762Y-133368683D01*
X110547690Y-133152559D01*
X110335490Y-133007569D01*
X110083600Y-132956560D01*
X108356400Y-132956560D01*
X108121083Y-133000838D01*
X107904959Y-133139910D01*
X107759969Y-133352110D01*
X107708960Y-133604000D01*
X94055000Y-133604000D01*
X94055000Y-132080000D01*
X124046655Y-132080000D01*
X124160729Y-132653489D01*
X124485585Y-133139670D01*
X124795069Y-133346461D01*
X124379268Y-133717964D01*
X124125291Y-134245209D01*
X124122642Y-134260974D01*
X124243783Y-134493000D01*
X125603000Y-134493000D01*
X125603000Y-134473000D01*
X125857000Y-134473000D01*
X125857000Y-134493000D01*
X127216217Y-134493000D01*
X127337358Y-134260974D01*
X127334709Y-134245209D01*
X127080732Y-133717964D01*
X126953179Y-133604000D01*
X135013960Y-133604000D01*
X135013960Y-135636000D01*
X135058238Y-135871317D01*
X135197310Y-136087441D01*
X135409510Y-136232431D01*
X135661400Y-136283440D01*
X137388600Y-136283440D01*
X137623917Y-136239162D01*
X137840041Y-136100090D01*
X137985031Y-135887890D01*
X138004232Y-135793073D01*
X138162964Y-135970732D01*
X138690209Y-136224709D01*
X138705974Y-136227358D01*
X138938000Y-136106217D01*
X138938000Y-134747000D01*
X139192000Y-134747000D01*
X139192000Y-136106217D01*
X139424026Y-136227358D01*
X139439791Y-136224709D01*
X139967036Y-135970732D01*
X140335000Y-135558892D01*
X140702964Y-135970732D01*
X141230209Y-136224709D01*
X141245974Y-136227358D01*
X141478000Y-136106217D01*
X141478000Y-134747000D01*
X139192000Y-134747000D01*
X138938000Y-134747000D01*
X138918000Y-134747000D01*
X138918000Y-134493000D01*
X138938000Y-134493000D01*
X138938000Y-133133783D01*
X139192000Y-133133783D01*
X139192000Y-134493000D01*
X141478000Y-134493000D01*
X141478000Y-133133783D01*
X141732000Y-133133783D01*
X141732000Y-134493000D01*
X141752000Y-134493000D01*
X141752000Y-134747000D01*
X141732000Y-134747000D01*
X141732000Y-136106217D01*
X141964026Y-136227358D01*
X141979791Y-136224709D01*
X142507036Y-135970732D01*
X142878539Y-135554931D01*
X143085330Y-135864415D01*
X143571511Y-136189271D01*
X144145000Y-136303345D01*
X144718489Y-136189271D01*
X145204670Y-135864415D01*
X145529526Y-135378234D01*
X145643600Y-134804745D01*
X145643600Y-134435255D01*
X145529526Y-133861766D01*
X145204670Y-133375585D01*
X144718489Y-133050729D01*
X144145000Y-132936655D01*
X143571511Y-133050729D01*
X143085330Y-133375585D01*
X142878539Y-133685069D01*
X142507036Y-133269268D01*
X141979791Y-133015291D01*
X141964026Y-133012642D01*
X141732000Y-133133783D01*
X141478000Y-133133783D01*
X141245974Y-133012642D01*
X141230209Y-133015291D01*
X140702964Y-133269268D01*
X140335000Y-133681108D01*
X139967036Y-133269268D01*
X139439791Y-133015291D01*
X139424026Y-133012642D01*
X139192000Y-133133783D01*
X138938000Y-133133783D01*
X138705974Y-133012642D01*
X138690209Y-133015291D01*
X138162964Y-133269268D01*
X138006093Y-133444845D01*
X137991762Y-133368683D01*
X137852690Y-133152559D01*
X137640490Y-133007569D01*
X137388600Y-132956560D01*
X135661400Y-132956560D01*
X135426083Y-133000838D01*
X135209959Y-133139910D01*
X135064969Y-133352110D01*
X135013960Y-133604000D01*
X126953179Y-133604000D01*
X126664931Y-133346461D01*
X126974415Y-133139670D01*
X127299271Y-132653489D01*
X127413345Y-132080000D01*
X127299271Y-131506511D01*
X126974415Y-131020330D01*
X126960087Y-131010757D01*
X126981317Y-131006762D01*
X127197441Y-130867690D01*
X127342431Y-130655490D01*
X127393440Y-130403600D01*
X127393440Y-128676400D01*
X127364764Y-128524000D01*
X135013960Y-128524000D01*
X135013960Y-130556000D01*
X135058238Y-130791317D01*
X135197310Y-131007441D01*
X135409510Y-131152431D01*
X135661400Y-131203440D01*
X137388600Y-131203440D01*
X137623917Y-131159162D01*
X137840041Y-131020090D01*
X137985031Y-130807890D01*
X137993400Y-130766561D01*
X138005330Y-130784415D01*
X138491511Y-131109271D01*
X139065000Y-131223345D01*
X139638489Y-131109271D01*
X140124670Y-130784415D01*
X140335000Y-130469634D01*
X140545330Y-130784415D01*
X141031511Y-131109271D01*
X141605000Y-131223345D01*
X142178489Y-131109271D01*
X142664670Y-130784415D01*
X142875000Y-130469634D01*
X143085330Y-130784415D01*
X143571511Y-131109271D01*
X144145000Y-131223345D01*
X144718489Y-131109271D01*
X145204670Y-130784415D01*
X145529526Y-130298234D01*
X145643600Y-129724745D01*
X145643600Y-129355255D01*
X145529526Y-128781766D01*
X145204670Y-128295585D01*
X144718489Y-127970729D01*
X144145000Y-127856655D01*
X143571511Y-127970729D01*
X143085330Y-128295585D01*
X142875000Y-128610366D01*
X142664670Y-128295585D01*
X142178489Y-127970729D01*
X141605000Y-127856655D01*
X141031511Y-127970729D01*
X140545330Y-128295585D01*
X140335000Y-128610366D01*
X140124670Y-128295585D01*
X139638489Y-127970729D01*
X139065000Y-127856655D01*
X138491511Y-127970729D01*
X138005330Y-128295585D01*
X137995757Y-128309913D01*
X137991762Y-128288683D01*
X137852690Y-128072559D01*
X137640490Y-127927569D01*
X137388600Y-127876560D01*
X135661400Y-127876560D01*
X135426083Y-127920838D01*
X135209959Y-128059910D01*
X135064969Y-128272110D01*
X135013960Y-128524000D01*
X127364764Y-128524000D01*
X127349162Y-128441083D01*
X127210090Y-128224959D01*
X126997890Y-128079969D01*
X126746000Y-128028960D01*
X124714000Y-128028960D01*
X124478683Y-128073238D01*
X124262559Y-128212310D01*
X124117569Y-128424510D01*
X124066560Y-128676400D01*
X124066560Y-130403600D01*
X124110838Y-130638917D01*
X124249910Y-130855041D01*
X124462110Y-131000031D01*
X124503439Y-131008400D01*
X124485585Y-131020330D01*
X124160729Y-131506511D01*
X124046655Y-132080000D01*
X94055000Y-132080000D01*
X94055000Y-127889000D01*
X107708960Y-127889000D01*
X107708960Y-129921000D01*
X107753238Y-130156317D01*
X107892310Y-130372441D01*
X108104510Y-130517431D01*
X108356400Y-130568440D01*
X110083600Y-130568440D01*
X110318917Y-130524162D01*
X110535041Y-130385090D01*
X110680031Y-130172890D01*
X110688400Y-130131561D01*
X110700330Y-130149415D01*
X111186511Y-130474271D01*
X111760000Y-130588345D01*
X112333489Y-130474271D01*
X112819670Y-130149415D01*
X113030000Y-129834634D01*
X113240330Y-130149415D01*
X113726511Y-130474271D01*
X114300000Y-130588345D01*
X114873489Y-130474271D01*
X115359670Y-130149415D01*
X115570000Y-129834634D01*
X115780330Y-130149415D01*
X116266511Y-130474271D01*
X116840000Y-130588345D01*
X117413489Y-130474271D01*
X117899670Y-130149415D01*
X118224526Y-129663234D01*
X118338600Y-129089745D01*
X118338600Y-128720255D01*
X118224526Y-128146766D01*
X117899670Y-127660585D01*
X117413489Y-127335729D01*
X116840000Y-127221655D01*
X116266511Y-127335729D01*
X115780330Y-127660585D01*
X115570000Y-127975366D01*
X115359670Y-127660585D01*
X114873489Y-127335729D01*
X114300000Y-127221655D01*
X113726511Y-127335729D01*
X113240330Y-127660585D01*
X113030000Y-127975366D01*
X112819670Y-127660585D01*
X112333489Y-127335729D01*
X111760000Y-127221655D01*
X111186511Y-127335729D01*
X110700330Y-127660585D01*
X110690757Y-127674913D01*
X110686762Y-127653683D01*
X110547690Y-127437559D01*
X110335490Y-127292569D01*
X110083600Y-127241560D01*
X108356400Y-127241560D01*
X108121083Y-127285838D01*
X107904959Y-127424910D01*
X107759969Y-127637110D01*
X107708960Y-127889000D01*
X94055000Y-127889000D01*
X94055000Y-114159078D01*
X97127378Y-114159078D01*
X97156917Y-114669428D01*
X97295389Y-115003729D01*
X97525984Y-115059410D01*
X98245395Y-114340000D01*
X98604605Y-114340000D01*
X99324016Y-115059410D01*
X99554611Y-115003729D01*
X99722622Y-114520922D01*
X99693083Y-114010572D01*
X99554611Y-113676271D01*
X99324016Y-113620590D01*
X98604605Y-114340000D01*
X98245395Y-114340000D01*
X97525984Y-113620590D01*
X97295389Y-113676271D01*
X97127378Y-114159078D01*
X94055000Y-114159078D01*
X94055000Y-113440984D01*
X97705590Y-113440984D01*
X98425000Y-114160395D01*
X99144410Y-113440984D01*
X99088729Y-113210389D01*
X98605922Y-113042378D01*
X98095572Y-113071917D01*
X97761271Y-113210389D01*
X97705590Y-113440984D01*
X94055000Y-113440984D01*
X94055000Y-91439060D01*
X95292653Y-91439060D01*
X95598013Y-92178086D01*
X96162941Y-92744001D01*
X96901433Y-93050650D01*
X97701061Y-93051348D01*
X98440087Y-92745988D01*
X98685000Y-92501502D01*
X98685000Y-110998000D01*
X98761882Y-111384510D01*
X98980822Y-111712178D01*
X103098644Y-115830000D01*
X99597931Y-115830000D01*
X99539090Y-115738559D01*
X99326890Y-115593569D01*
X99075000Y-115542560D01*
X98912615Y-115542560D01*
X99088729Y-115469611D01*
X99144410Y-115239016D01*
X98425000Y-114519605D01*
X97705590Y-115239016D01*
X97761271Y-115469611D01*
X97970902Y-115542560D01*
X97775000Y-115542560D01*
X97539683Y-115586838D01*
X97323559Y-115725910D01*
X97178569Y-115938110D01*
X97127560Y-116190000D01*
X97127560Y-117490000D01*
X97171838Y-117725317D01*
X97310910Y-117941441D01*
X97523110Y-118086431D01*
X97775000Y-118137440D01*
X99075000Y-118137440D01*
X99310317Y-118093162D01*
X99526441Y-117954090D01*
X99597563Y-117850000D01*
X104571304Y-117850000D01*
X104744630Y-118023629D01*
X105257900Y-118236757D01*
X105813661Y-118237242D01*
X106327303Y-118025010D01*
X106502619Y-117850000D01*
X111976644Y-117850000D01*
X114220822Y-120094178D01*
X114548489Y-120313118D01*
X114935000Y-120390000D01*
X130302000Y-120390000D01*
X130688510Y-120313118D01*
X131016178Y-120094178D01*
X132873328Y-118237028D01*
X133118661Y-118237242D01*
X133632303Y-118025010D01*
X134025629Y-117632370D01*
X134238757Y-117119100D01*
X134239242Y-116563339D01*
X134142829Y-116330000D01*
X144037198Y-116330000D01*
X144077817Y-116370619D01*
X144065243Y-116400900D01*
X144064758Y-116956661D01*
X144276990Y-117470303D01*
X144669630Y-117863629D01*
X145182900Y-118076757D01*
X145738661Y-118077242D01*
X145771055Y-118063857D01*
X146560000Y-118852802D01*
X146560000Y-132715000D01*
X146617852Y-133005839D01*
X146782599Y-133252401D01*
X149322599Y-135792401D01*
X149569160Y-135957148D01*
X149617414Y-135966746D01*
X149860000Y-136015000D01*
X154377469Y-136015000D01*
X154389990Y-136045303D01*
X154782630Y-136438629D01*
X155295900Y-136651757D01*
X155851661Y-136652242D01*
X156365303Y-136440010D01*
X156758629Y-136047370D01*
X156971757Y-135534100D01*
X156972242Y-134978339D01*
X156760010Y-134464697D01*
X156367370Y-134071371D01*
X156159488Y-133985051D01*
X156365303Y-133900010D01*
X156758629Y-133507370D01*
X156971757Y-132994100D01*
X156972242Y-132438339D01*
X156760010Y-131924697D01*
X156367370Y-131531371D01*
X156159488Y-131445051D01*
X156365303Y-131360010D01*
X156758629Y-130967370D01*
X156971757Y-130454100D01*
X156972242Y-129898339D01*
X156760010Y-129384697D01*
X156367370Y-128991371D01*
X156159488Y-128905051D01*
X156365303Y-128820010D01*
X156758629Y-128427370D01*
X156971757Y-127914100D01*
X156972242Y-127358339D01*
X156760010Y-126844697D01*
X156367370Y-126451371D01*
X156159488Y-126365051D01*
X156365303Y-126280010D01*
X156758629Y-125887370D01*
X156772070Y-125855000D01*
X157480000Y-125855000D01*
X157770839Y-125797148D01*
X158017401Y-125632401D01*
X158652401Y-124997401D01*
X158817148Y-124750839D01*
X158875000Y-124460000D01*
X158875000Y-114935000D01*
X158833686Y-114727302D01*
X158817148Y-114644160D01*
X158652401Y-114397599D01*
X157382401Y-113127599D01*
X157135839Y-112962852D01*
X156873523Y-112910674D01*
X156971757Y-112674100D01*
X156972242Y-112118339D01*
X156875829Y-111885000D01*
X164150198Y-111885000D01*
X169430817Y-117165619D01*
X169418243Y-117195900D01*
X169417758Y-117751661D01*
X169629990Y-118265303D01*
X170022630Y-118658629D01*
X170230512Y-118744949D01*
X170024697Y-118829990D01*
X169631371Y-119222630D01*
X169418243Y-119735900D01*
X169417758Y-120291661D01*
X169629990Y-120805303D01*
X170022630Y-121198629D01*
X170230512Y-121284949D01*
X170024697Y-121369990D01*
X169631371Y-121762630D01*
X169418243Y-122275900D01*
X169417758Y-122831661D01*
X169629990Y-123345303D01*
X170022630Y-123738629D01*
X170230512Y-123824949D01*
X170024697Y-123909990D01*
X169631371Y-124302630D01*
X169418243Y-124815900D01*
X169417758Y-125371661D01*
X169629990Y-125885303D01*
X170022630Y-126278629D01*
X170230512Y-126364949D01*
X170024697Y-126449990D01*
X169631371Y-126842630D01*
X169418243Y-127355900D01*
X169417758Y-127911661D01*
X169629990Y-128425303D01*
X170022630Y-128818629D01*
X170230512Y-128904949D01*
X170024697Y-128989990D01*
X169631371Y-129382630D01*
X169418243Y-129895900D01*
X169417758Y-130451661D01*
X169629990Y-130965303D01*
X170022630Y-131358629D01*
X170230512Y-131444949D01*
X170024697Y-131529990D01*
X169631371Y-131922630D01*
X169418243Y-132435900D01*
X169417758Y-132991661D01*
X169629990Y-133505303D01*
X170022630Y-133898629D01*
X170230512Y-133984949D01*
X170024697Y-134069990D01*
X169631371Y-134462630D01*
X169418243Y-134975900D01*
X169417758Y-135531661D01*
X169629990Y-136045303D01*
X170022630Y-136438629D01*
X170535900Y-136651757D01*
X171091661Y-136652242D01*
X171605303Y-136440010D01*
X171998629Y-136047370D01*
X172211757Y-135534100D01*
X172212242Y-134978339D01*
X172000010Y-134464697D01*
X171607370Y-134071371D01*
X171399488Y-133985051D01*
X171605303Y-133900010D01*
X171998629Y-133507370D01*
X172211757Y-132994100D01*
X172212242Y-132438339D01*
X172000010Y-131924697D01*
X171607370Y-131531371D01*
X171399488Y-131445051D01*
X171605303Y-131360010D01*
X171998629Y-130967370D01*
X172211757Y-130454100D01*
X172212242Y-129898339D01*
X172000010Y-129384697D01*
X171607370Y-128991371D01*
X171399488Y-128905051D01*
X171605303Y-128820010D01*
X171998629Y-128427370D01*
X172211757Y-127914100D01*
X172212242Y-127358339D01*
X172000010Y-126844697D01*
X171607370Y-126451371D01*
X171399488Y-126365051D01*
X171605303Y-126280010D01*
X171998629Y-125887370D01*
X172211757Y-125374100D01*
X172212242Y-124818339D01*
X172000010Y-124304697D01*
X171607370Y-123911371D01*
X171399488Y-123825051D01*
X171605303Y-123740010D01*
X171998629Y-123347370D01*
X172211757Y-122834100D01*
X172212242Y-122278339D01*
X172000010Y-121764697D01*
X171607370Y-121371371D01*
X171399488Y-121285051D01*
X171605303Y-121200010D01*
X171998629Y-120807370D01*
X172211757Y-120294100D01*
X172212242Y-119738339D01*
X172000010Y-119224697D01*
X171607370Y-118831371D01*
X171399488Y-118745051D01*
X171605303Y-118660010D01*
X171998629Y-118267370D01*
X172211757Y-117754100D01*
X172212242Y-117198339D01*
X172000010Y-116684697D01*
X171607370Y-116291371D01*
X171399488Y-116205051D01*
X171605303Y-116120010D01*
X171998629Y-115727370D01*
X172211757Y-115214100D01*
X172212242Y-114658339D01*
X172000010Y-114144697D01*
X171607370Y-113751371D01*
X171399488Y-113665051D01*
X171605303Y-113580010D01*
X171998629Y-113187370D01*
X172211757Y-112674100D01*
X172212242Y-112118339D01*
X172000010Y-111604697D01*
X171607370Y-111211371D01*
X171415273Y-111131605D01*
X171546143Y-111077397D01*
X171615608Y-110835213D01*
X170815000Y-110034605D01*
X170014392Y-110835213D01*
X170083857Y-111077397D01*
X170224318Y-111127509D01*
X170024697Y-111209990D01*
X169631371Y-111602630D01*
X169418243Y-112115900D01*
X169417758Y-112671661D01*
X169629990Y-113185303D01*
X170022630Y-113578629D01*
X170230512Y-113664949D01*
X170024697Y-113749990D01*
X169631371Y-114142630D01*
X169418243Y-114655900D01*
X169417940Y-115003138D01*
X165002401Y-110587599D01*
X164755839Y-110422852D01*
X164465000Y-110365000D01*
X158679802Y-110365000D01*
X159287401Y-109757401D01*
X159360966Y-109647302D01*
X169405856Y-109647302D01*
X169433638Y-110202368D01*
X169592603Y-110586143D01*
X169834787Y-110655608D01*
X170635395Y-109855000D01*
X170994605Y-109855000D01*
X171795213Y-110655608D01*
X172037397Y-110586143D01*
X172224144Y-110062698D01*
X172196362Y-109507632D01*
X172037397Y-109123857D01*
X171795213Y-109054392D01*
X170994605Y-109855000D01*
X170635395Y-109855000D01*
X169834787Y-109054392D01*
X169592603Y-109123857D01*
X169405856Y-109647302D01*
X159360966Y-109647302D01*
X159452148Y-109510839D01*
X159510000Y-109220000D01*
X159510000Y-99060000D01*
X159468686Y-98852302D01*
X159452148Y-98769160D01*
X159287401Y-98522599D01*
X158017401Y-97252599D01*
X157770839Y-97087852D01*
X157502215Y-97034419D01*
X157299029Y-96730330D01*
X156812848Y-96405474D01*
X156239359Y-96291400D01*
X156180641Y-96291400D01*
X155607152Y-96405474D01*
X155141558Y-96716574D01*
X155136762Y-96691083D01*
X154997690Y-96474959D01*
X154785490Y-96329969D01*
X154533600Y-96278960D01*
X153233762Y-96278960D01*
X151916694Y-94961892D01*
X152058001Y-94990000D01*
X158331644Y-94990000D01*
X160661000Y-97319356D01*
X160661000Y-98348304D01*
X160487371Y-98521630D01*
X160274243Y-99034900D01*
X160273758Y-99590661D01*
X160485990Y-100104303D01*
X160878630Y-100497629D01*
X161391900Y-100710757D01*
X161947661Y-100711242D01*
X162461303Y-100499010D01*
X162636619Y-100324000D01*
X163201000Y-100324000D01*
X163201000Y-104521000D01*
X163277882Y-104907510D01*
X163496822Y-105235178D01*
X166290822Y-108029178D01*
X166618490Y-108248118D01*
X167005000Y-108325000D01*
X169849304Y-108325000D01*
X170022630Y-108498629D01*
X170214727Y-108578395D01*
X170083857Y-108632603D01*
X170014392Y-108874787D01*
X170815000Y-109675395D01*
X171615608Y-108874787D01*
X171546143Y-108632603D01*
X171405682Y-108582491D01*
X171605303Y-108500010D01*
X171998629Y-108107370D01*
X172211757Y-107594100D01*
X172212242Y-107038339D01*
X172000010Y-106524697D01*
X171607370Y-106131371D01*
X171094100Y-105918243D01*
X170538339Y-105917758D01*
X170024697Y-106129990D01*
X169849381Y-106305000D01*
X167423356Y-106305000D01*
X165221000Y-104102644D01*
X165221000Y-100294213D01*
X171538392Y-100294213D01*
X171607857Y-100536397D01*
X172131302Y-100723144D01*
X172686368Y-100695362D01*
X173070143Y-100536397D01*
X173139608Y-100294213D01*
X174078392Y-100294213D01*
X174147857Y-100536397D01*
X174671302Y-100723144D01*
X175226368Y-100695362D01*
X175610143Y-100536397D01*
X175679608Y-100294213D01*
X174879000Y-99493605D01*
X174078392Y-100294213D01*
X173139608Y-100294213D01*
X172339000Y-99493605D01*
X171538392Y-100294213D01*
X165221000Y-100294213D01*
X165221000Y-100279696D01*
X165394629Y-100106370D01*
X165607757Y-99593100D01*
X165608181Y-99106302D01*
X170929856Y-99106302D01*
X170957638Y-99661368D01*
X171116603Y-100045143D01*
X171358787Y-100114608D01*
X172159395Y-99314000D01*
X172518605Y-99314000D01*
X173319213Y-100114608D01*
X173561397Y-100045143D01*
X173605453Y-99921656D01*
X173656603Y-100045143D01*
X173898787Y-100114608D01*
X174699395Y-99314000D01*
X175058605Y-99314000D01*
X175859213Y-100114608D01*
X176101397Y-100045143D01*
X176288144Y-99521698D01*
X176260362Y-98966632D01*
X176101397Y-98582857D01*
X175859213Y-98513392D01*
X175058605Y-99314000D01*
X174699395Y-99314000D01*
X173898787Y-98513392D01*
X173656603Y-98582857D01*
X173612547Y-98706344D01*
X173561397Y-98582857D01*
X173319213Y-98513392D01*
X172518605Y-99314000D01*
X172159395Y-99314000D01*
X171358787Y-98513392D01*
X171116603Y-98582857D01*
X170929856Y-99106302D01*
X165608181Y-99106302D01*
X165608242Y-99037339D01*
X165396010Y-98523697D01*
X165206432Y-98333787D01*
X171538392Y-98333787D01*
X172339000Y-99134395D01*
X173139608Y-98333787D01*
X174078392Y-98333787D01*
X174879000Y-99134395D01*
X175679608Y-98333787D01*
X175610143Y-98091603D01*
X175086698Y-97904856D01*
X174531632Y-97932638D01*
X174147857Y-98091603D01*
X174078392Y-98333787D01*
X173139608Y-98333787D01*
X173070143Y-98091603D01*
X172546698Y-97904856D01*
X171991632Y-97932638D01*
X171607857Y-98091603D01*
X171538392Y-98333787D01*
X165206432Y-98333787D01*
X165003370Y-98130371D01*
X164490100Y-97917243D01*
X163934339Y-97916758D01*
X163420697Y-98128990D01*
X163245381Y-98304000D01*
X162681000Y-98304000D01*
X162681000Y-96901000D01*
X162604118Y-96514490D01*
X162385178Y-96186822D01*
X159464178Y-93265822D01*
X159136510Y-93046882D01*
X158750000Y-92970000D01*
X155936938Y-92970000D01*
X156479087Y-92745988D01*
X157045002Y-92181060D01*
X157351651Y-91442568D01*
X157352349Y-90642940D01*
X157046989Y-89903914D01*
X156482061Y-89337999D01*
X155743569Y-89031350D01*
X154943941Y-89030652D01*
X154204915Y-89336012D01*
X153639000Y-89900940D01*
X153332351Y-90639432D01*
X153331653Y-91439060D01*
X153637013Y-92178086D01*
X154201941Y-92744001D01*
X154746206Y-92970000D01*
X152476357Y-92970000D01*
X151786029Y-92279672D01*
X151786243Y-92034339D01*
X151574011Y-91520697D01*
X151181371Y-91127371D01*
X150973489Y-91041051D01*
X151179304Y-90956010D01*
X151572630Y-90563370D01*
X151785758Y-90050100D01*
X151786243Y-89494339D01*
X151574011Y-88980697D01*
X151181371Y-88587371D01*
X150668101Y-88374243D01*
X150112340Y-88373758D01*
X149598698Y-88585990D01*
X149205372Y-88978630D01*
X149119052Y-89186512D01*
X149034011Y-88980697D01*
X148641371Y-88587371D01*
X148128101Y-88374243D01*
X147572340Y-88373758D01*
X147058698Y-88585990D01*
X146665372Y-88978630D01*
X146579052Y-89186512D01*
X146494011Y-88980697D01*
X146101371Y-88587371D01*
X145588101Y-88374243D01*
X145032340Y-88373758D01*
X144518698Y-88585990D01*
X144125372Y-88978630D01*
X144039052Y-89186512D01*
X143954011Y-88980697D01*
X143561371Y-88587371D01*
X143048101Y-88374243D01*
X142492340Y-88373758D01*
X141978698Y-88585990D01*
X141585372Y-88978630D01*
X141505606Y-89170727D01*
X141451398Y-89039857D01*
X141209214Y-88970392D01*
X140408606Y-89771000D01*
X141209214Y-90571608D01*
X141451398Y-90502143D01*
X141501510Y-90361682D01*
X141583991Y-90561303D01*
X141976631Y-90954629D01*
X142184513Y-91040949D01*
X141978698Y-91125990D01*
X141585372Y-91518630D01*
X141499052Y-91726512D01*
X141414011Y-91520697D01*
X141021371Y-91127371D01*
X140829274Y-91047605D01*
X140960144Y-90993397D01*
X141029609Y-90751213D01*
X140229001Y-89950605D01*
X139428393Y-90751213D01*
X139497858Y-90993397D01*
X139638319Y-91043509D01*
X139438698Y-91125990D01*
X139045372Y-91518630D01*
X138959052Y-91726512D01*
X138874011Y-91520697D01*
X138481371Y-91127371D01*
X138273489Y-91041051D01*
X138479304Y-90956010D01*
X138872630Y-90563370D01*
X138952396Y-90371273D01*
X139006604Y-90502143D01*
X139248788Y-90571608D01*
X140049396Y-89771000D01*
X139248788Y-88970392D01*
X139006604Y-89039857D01*
X138956492Y-89180318D01*
X138874011Y-88980697D01*
X138684433Y-88790787D01*
X139428393Y-88790787D01*
X140229001Y-89591395D01*
X141029609Y-88790787D01*
X140960144Y-88548603D01*
X140436699Y-88361856D01*
X139881633Y-88389638D01*
X139497858Y-88548603D01*
X139428393Y-88790787D01*
X138684433Y-88790787D01*
X138481371Y-88587371D01*
X137968101Y-88374243D01*
X137412340Y-88373758D01*
X136898698Y-88585990D01*
X136505372Y-88978630D01*
X136419052Y-89186512D01*
X136334011Y-88980697D01*
X135941371Y-88587371D01*
X135428101Y-88374243D01*
X134872340Y-88373758D01*
X134358698Y-88585990D01*
X133965372Y-88978630D01*
X133879052Y-89186512D01*
X133794011Y-88980697D01*
X133401371Y-88587371D01*
X132888101Y-88374243D01*
X132332340Y-88373758D01*
X131818698Y-88585990D01*
X131425372Y-88978630D01*
X131339052Y-89186512D01*
X131254011Y-88980697D01*
X130861371Y-88587371D01*
X130348101Y-88374243D01*
X129792340Y-88373758D01*
X129278698Y-88585990D01*
X128885372Y-88978630D01*
X128799052Y-89186512D01*
X128714011Y-88980697D01*
X128321371Y-88587371D01*
X127808101Y-88374243D01*
X127252340Y-88373758D01*
X126738698Y-88585990D01*
X126345372Y-88978630D01*
X126259052Y-89186512D01*
X126174011Y-88980697D01*
X125781371Y-88587371D01*
X125268101Y-88374243D01*
X124712340Y-88373758D01*
X124198698Y-88585990D01*
X123805372Y-88978630D01*
X123719052Y-89186512D01*
X123634011Y-88980697D01*
X123241371Y-88587371D01*
X122728101Y-88374243D01*
X122172340Y-88373758D01*
X121658698Y-88585990D01*
X121265372Y-88978630D01*
X121185606Y-89170727D01*
X121131398Y-89039857D01*
X120889214Y-88970392D01*
X120088606Y-89771000D01*
X120889214Y-90571608D01*
X121131398Y-90502143D01*
X121181510Y-90361682D01*
X121263991Y-90561303D01*
X121656631Y-90954629D01*
X121864513Y-91040949D01*
X121658698Y-91125990D01*
X121265372Y-91518630D01*
X121179052Y-91726512D01*
X121094011Y-91520697D01*
X120701371Y-91127371D01*
X120509274Y-91047605D01*
X120640144Y-90993397D01*
X120709609Y-90751213D01*
X119909001Y-89950605D01*
X119108393Y-90751213D01*
X119177858Y-90993397D01*
X119318319Y-91043509D01*
X119118698Y-91125990D01*
X118725372Y-91518630D01*
X118639052Y-91726512D01*
X118554011Y-91520697D01*
X118161371Y-91127371D01*
X117953489Y-91041051D01*
X118159304Y-90956010D01*
X118552630Y-90563370D01*
X118632396Y-90371273D01*
X118686604Y-90502143D01*
X118928788Y-90571608D01*
X119729396Y-89771000D01*
X118928788Y-88970392D01*
X118686604Y-89039857D01*
X118636492Y-89180318D01*
X118554011Y-88980697D01*
X118364433Y-88790787D01*
X119108393Y-88790787D01*
X119909001Y-89591395D01*
X120709609Y-88790787D01*
X120640144Y-88548603D01*
X120116699Y-88361856D01*
X119561633Y-88389638D01*
X119177858Y-88548603D01*
X119108393Y-88790787D01*
X118364433Y-88790787D01*
X118161371Y-88587371D01*
X117648101Y-88374243D01*
X117092340Y-88373758D01*
X116578698Y-88585990D01*
X116185372Y-88978630D01*
X116099052Y-89186512D01*
X116014011Y-88980697D01*
X115621371Y-88587371D01*
X115108101Y-88374243D01*
X114552340Y-88373758D01*
X114038698Y-88585990D01*
X113645372Y-88978630D01*
X113559052Y-89186512D01*
X113474011Y-88980697D01*
X113081371Y-88587371D01*
X112568101Y-88374243D01*
X112012340Y-88373758D01*
X111498698Y-88585990D01*
X111105372Y-88978630D01*
X111019052Y-89186512D01*
X110934011Y-88980697D01*
X110541371Y-88587371D01*
X110028101Y-88374243D01*
X109472340Y-88373758D01*
X108958698Y-88585990D01*
X108565372Y-88978630D01*
X108479052Y-89186512D01*
X108394011Y-88980697D01*
X108001371Y-88587371D01*
X107488101Y-88374243D01*
X106932340Y-88373758D01*
X106418698Y-88585990D01*
X106025372Y-88978630D01*
X105939052Y-89186512D01*
X105854011Y-88980697D01*
X105461371Y-88587371D01*
X104948101Y-88374243D01*
X104392340Y-88373758D01*
X103878698Y-88585990D01*
X103485372Y-88978630D01*
X103405606Y-89170727D01*
X103351398Y-89039857D01*
X103109214Y-88970392D01*
X102308606Y-89771000D01*
X103109214Y-90571608D01*
X103351398Y-90502143D01*
X103401510Y-90361682D01*
X103483991Y-90561303D01*
X103876631Y-90954629D01*
X104084513Y-91040949D01*
X103878698Y-91125990D01*
X103485372Y-91518630D01*
X103399052Y-91726512D01*
X103314011Y-91520697D01*
X102921371Y-91127371D01*
X102729274Y-91047605D01*
X102860144Y-90993397D01*
X102929609Y-90751213D01*
X102129001Y-89950605D01*
X101328393Y-90751213D01*
X101397858Y-90993397D01*
X101538319Y-91043509D01*
X101338698Y-91125990D01*
X100945372Y-91518630D01*
X100732244Y-92031900D01*
X100731759Y-92587661D01*
X100943991Y-93101303D01*
X101336631Y-93494629D01*
X101849901Y-93707757D01*
X102405662Y-93708242D01*
X102919304Y-93496010D01*
X103312630Y-93103370D01*
X103398950Y-92895488D01*
X103483991Y-93101303D01*
X103876631Y-93494629D01*
X104389901Y-93707757D01*
X104945662Y-93708242D01*
X105459304Y-93496010D01*
X105852630Y-93103370D01*
X105938950Y-92895488D01*
X106023991Y-93101303D01*
X106416631Y-93494629D01*
X106929901Y-93707757D01*
X107485662Y-93708242D01*
X107999304Y-93496010D01*
X108204458Y-93291213D01*
X108948393Y-93291213D01*
X109017858Y-93533397D01*
X109541303Y-93720144D01*
X110096369Y-93692362D01*
X110480144Y-93533397D01*
X110549609Y-93291213D01*
X109749001Y-92490605D01*
X108948393Y-93291213D01*
X108204458Y-93291213D01*
X108392630Y-93103370D01*
X108472396Y-92911273D01*
X108526604Y-93042143D01*
X108768788Y-93111608D01*
X109569396Y-92311000D01*
X108768788Y-91510392D01*
X108526604Y-91579857D01*
X108476492Y-91720318D01*
X108394011Y-91520697D01*
X108001371Y-91127371D01*
X107793489Y-91041051D01*
X107999304Y-90956010D01*
X108392630Y-90563370D01*
X108478950Y-90355488D01*
X108563991Y-90561303D01*
X108956631Y-90954629D01*
X109148728Y-91034395D01*
X109017858Y-91088603D01*
X108948393Y-91330787D01*
X109749001Y-92131395D01*
X110549609Y-91330787D01*
X110480144Y-91088603D01*
X110339683Y-91038491D01*
X110539304Y-90956010D01*
X110932630Y-90563370D01*
X111018950Y-90355488D01*
X111103991Y-90561303D01*
X111496631Y-90954629D01*
X111704513Y-91040949D01*
X111498698Y-91125990D01*
X111105372Y-91518630D01*
X111025606Y-91710727D01*
X110971398Y-91579857D01*
X110729214Y-91510392D01*
X109928606Y-92311000D01*
X110729214Y-93111608D01*
X110971398Y-93042143D01*
X111021510Y-92901682D01*
X111103991Y-93101303D01*
X111496631Y-93494629D01*
X112009901Y-93707757D01*
X112565662Y-93708242D01*
X113079304Y-93496010D01*
X113284458Y-93291213D01*
X114028393Y-93291213D01*
X114097858Y-93533397D01*
X114621303Y-93720144D01*
X115176369Y-93692362D01*
X115560144Y-93533397D01*
X115629609Y-93291213D01*
X114829001Y-92490605D01*
X114028393Y-93291213D01*
X113284458Y-93291213D01*
X113472630Y-93103370D01*
X113552396Y-92911273D01*
X113606604Y-93042143D01*
X113848788Y-93111608D01*
X114649396Y-92311000D01*
X113848788Y-91510392D01*
X113606604Y-91579857D01*
X113556492Y-91720318D01*
X113474011Y-91520697D01*
X113081371Y-91127371D01*
X112873489Y-91041051D01*
X113079304Y-90956010D01*
X113472630Y-90563370D01*
X113558950Y-90355488D01*
X113643991Y-90561303D01*
X114036631Y-90954629D01*
X114228728Y-91034395D01*
X114097858Y-91088603D01*
X114028393Y-91330787D01*
X114829001Y-92131395D01*
X115629609Y-91330787D01*
X115560144Y-91088603D01*
X115419683Y-91038491D01*
X115619304Y-90956010D01*
X116012630Y-90563370D01*
X116098950Y-90355488D01*
X116183991Y-90561303D01*
X116576631Y-90954629D01*
X116784513Y-91040949D01*
X116578698Y-91125990D01*
X116185372Y-91518630D01*
X116105606Y-91710727D01*
X116051398Y-91579857D01*
X115809214Y-91510392D01*
X115008606Y-92311000D01*
X115809214Y-93111608D01*
X116051398Y-93042143D01*
X116101510Y-92901682D01*
X116183991Y-93101303D01*
X116576631Y-93494629D01*
X117089901Y-93707757D01*
X117645662Y-93708242D01*
X118159304Y-93496010D01*
X118552630Y-93103370D01*
X118638950Y-92895488D01*
X118723991Y-93101303D01*
X119116631Y-93494629D01*
X119629901Y-93707757D01*
X120185662Y-93708242D01*
X120699304Y-93496010D01*
X121092630Y-93103370D01*
X121178950Y-92895488D01*
X121263991Y-93101303D01*
X121656631Y-93494629D01*
X122169901Y-93707757D01*
X122725662Y-93708242D01*
X123239304Y-93496010D01*
X123632630Y-93103370D01*
X123718950Y-92895488D01*
X123803991Y-93101303D01*
X124196631Y-93494629D01*
X124709901Y-93707757D01*
X125265662Y-93708242D01*
X125779304Y-93496010D01*
X125984458Y-93291213D01*
X126728393Y-93291213D01*
X126797858Y-93533397D01*
X127321303Y-93720144D01*
X127876369Y-93692362D01*
X128260144Y-93533397D01*
X128329609Y-93291213D01*
X127529001Y-92490605D01*
X126728393Y-93291213D01*
X125984458Y-93291213D01*
X126172630Y-93103370D01*
X126252396Y-92911273D01*
X126306604Y-93042143D01*
X126548788Y-93111608D01*
X127349396Y-92311000D01*
X126548788Y-91510392D01*
X126306604Y-91579857D01*
X126256492Y-91720318D01*
X126174011Y-91520697D01*
X125781371Y-91127371D01*
X125573489Y-91041051D01*
X125779304Y-90956010D01*
X126172630Y-90563370D01*
X126258950Y-90355488D01*
X126343991Y-90561303D01*
X126736631Y-90954629D01*
X126928728Y-91034395D01*
X126797858Y-91088603D01*
X126728393Y-91330787D01*
X127529001Y-92131395D01*
X128329609Y-91330787D01*
X128260144Y-91088603D01*
X128119683Y-91038491D01*
X128319304Y-90956010D01*
X128712630Y-90563370D01*
X128798950Y-90355488D01*
X128883991Y-90561303D01*
X129276631Y-90954629D01*
X129484513Y-91040949D01*
X129278698Y-91125990D01*
X128885372Y-91518630D01*
X128805606Y-91710727D01*
X128751398Y-91579857D01*
X128509214Y-91510392D01*
X127708606Y-92311000D01*
X128509214Y-93111608D01*
X128751398Y-93042143D01*
X128801510Y-92901682D01*
X128883991Y-93101303D01*
X129276631Y-93494629D01*
X129789901Y-93707757D01*
X130345662Y-93708242D01*
X130859304Y-93496010D01*
X131252630Y-93103370D01*
X131338950Y-92895488D01*
X131423991Y-93101303D01*
X131816631Y-93494629D01*
X132329901Y-93707757D01*
X132885662Y-93708242D01*
X133399304Y-93496010D01*
X133604458Y-93291213D01*
X134348393Y-93291213D01*
X134417858Y-93533397D01*
X134941303Y-93720144D01*
X135496369Y-93692362D01*
X135880144Y-93533397D01*
X135949609Y-93291213D01*
X135149001Y-92490605D01*
X134348393Y-93291213D01*
X133604458Y-93291213D01*
X133792630Y-93103370D01*
X133872396Y-92911273D01*
X133926604Y-93042143D01*
X134168788Y-93111608D01*
X134969396Y-92311000D01*
X134168788Y-91510392D01*
X133926604Y-91579857D01*
X133876492Y-91720318D01*
X133794011Y-91520697D01*
X133401371Y-91127371D01*
X133193489Y-91041051D01*
X133399304Y-90956010D01*
X133792630Y-90563370D01*
X133878950Y-90355488D01*
X133963991Y-90561303D01*
X134356631Y-90954629D01*
X134548728Y-91034395D01*
X134417858Y-91088603D01*
X134348393Y-91330787D01*
X135149001Y-92131395D01*
X135949609Y-91330787D01*
X135880144Y-91088603D01*
X135739683Y-91038491D01*
X135939304Y-90956010D01*
X136332630Y-90563370D01*
X136418950Y-90355488D01*
X136503991Y-90561303D01*
X136896631Y-90954629D01*
X137104513Y-91040949D01*
X136898698Y-91125990D01*
X136505372Y-91518630D01*
X136425606Y-91710727D01*
X136371398Y-91579857D01*
X136129214Y-91510392D01*
X135328606Y-92311000D01*
X136129214Y-93111608D01*
X136371398Y-93042143D01*
X136421510Y-92901682D01*
X136503991Y-93101303D01*
X136896631Y-93494629D01*
X137409901Y-93707757D01*
X137965662Y-93708242D01*
X138479304Y-93496010D01*
X138872630Y-93103370D01*
X138958950Y-92895488D01*
X139043991Y-93101303D01*
X139436631Y-93494629D01*
X139528936Y-93532957D01*
X139691600Y-93776402D01*
X141040198Y-95125000D01*
X111125000Y-95125000D01*
X110834160Y-95182852D01*
X110587599Y-95347599D01*
X106932862Y-99002336D01*
X106918362Y-98712632D01*
X106759397Y-98328857D01*
X106517213Y-98259392D01*
X105716605Y-99060000D01*
X105730748Y-99074143D01*
X105551143Y-99253748D01*
X105537000Y-99239605D01*
X104736392Y-100040213D01*
X104805857Y-100282397D01*
X104946318Y-100332509D01*
X104746697Y-100414990D01*
X104353371Y-100807630D01*
X104140243Y-101320900D01*
X104139758Y-101876661D01*
X104351990Y-102390303D01*
X104744630Y-102783629D01*
X104952512Y-102869949D01*
X104746697Y-102954990D01*
X104353371Y-103347630D01*
X104140243Y-103860900D01*
X104139758Y-104416661D01*
X104351990Y-104930303D01*
X104744630Y-105323629D01*
X104952512Y-105409949D01*
X104746697Y-105494990D01*
X104353371Y-105887630D01*
X104140243Y-106400900D01*
X104139758Y-106956661D01*
X104351990Y-107470303D01*
X104744630Y-107863629D01*
X104952512Y-107949949D01*
X104746697Y-108034990D01*
X104353371Y-108427630D01*
X104140243Y-108940900D01*
X104139758Y-109496661D01*
X104351990Y-110010303D01*
X104744630Y-110403629D01*
X104952512Y-110489949D01*
X104746697Y-110574990D01*
X104353371Y-110967630D01*
X104140243Y-111480900D01*
X104139758Y-112036661D01*
X104351990Y-112550303D01*
X104744630Y-112943629D01*
X104936727Y-113023395D01*
X104805857Y-113077603D01*
X104736392Y-113319787D01*
X105537000Y-114120395D01*
X106337608Y-113319787D01*
X106268143Y-113077603D01*
X106127682Y-113027491D01*
X106327303Y-112945010D01*
X106720629Y-112552370D01*
X106933757Y-112039100D01*
X106934242Y-111483339D01*
X106722010Y-110969697D01*
X106329370Y-110576371D01*
X106121488Y-110490051D01*
X106327303Y-110405010D01*
X106720629Y-110012370D01*
X106933757Y-109499100D01*
X106934242Y-108943339D01*
X106722010Y-108429697D01*
X106329370Y-108036371D01*
X106121488Y-107950051D01*
X106327303Y-107865010D01*
X106720629Y-107472370D01*
X106933757Y-106959100D01*
X106934242Y-106403339D01*
X106722010Y-105889697D01*
X106329370Y-105496371D01*
X106121488Y-105410051D01*
X106327303Y-105325010D01*
X106720629Y-104932370D01*
X106933757Y-104419100D01*
X106934242Y-103863339D01*
X106722010Y-103349697D01*
X106329370Y-102956371D01*
X106121488Y-102870051D01*
X106327303Y-102785010D01*
X106720629Y-102392370D01*
X106734070Y-102360000D01*
X110810198Y-102360000D01*
X111857599Y-103407401D01*
X112104160Y-103572148D01*
X112395000Y-103630000D01*
X116872730Y-103630000D01*
X116760243Y-103900900D01*
X116759758Y-104456661D01*
X116971990Y-104970303D01*
X117364630Y-105363629D01*
X117397000Y-105377070D01*
X117397000Y-105482469D01*
X117366697Y-105494990D01*
X116973371Y-105887630D01*
X116760243Y-106400900D01*
X116759758Y-106956661D01*
X116971990Y-107470303D01*
X117364630Y-107863629D01*
X117524228Y-107929900D01*
X117366697Y-107994990D01*
X116973371Y-108387630D01*
X116760243Y-108900900D01*
X116759758Y-109456661D01*
X116971990Y-109970303D01*
X117364630Y-110363629D01*
X117524228Y-110429900D01*
X117366697Y-110494990D01*
X116973371Y-110887630D01*
X116760243Y-111400900D01*
X116759758Y-111956661D01*
X116971990Y-112470303D01*
X117364630Y-112863629D01*
X117524228Y-112929900D01*
X117366697Y-112994990D01*
X116973371Y-113387630D01*
X116760243Y-113900900D01*
X116759758Y-114456661D01*
X116971990Y-114970303D01*
X117364630Y-115363629D01*
X117524228Y-115429900D01*
X117366697Y-115494990D01*
X116973371Y-115887630D01*
X116760243Y-116400900D01*
X116759758Y-116956661D01*
X116971990Y-117470303D01*
X117364630Y-117863629D01*
X117877900Y-118076757D01*
X118433661Y-118077242D01*
X118947303Y-117865010D01*
X119340629Y-117472370D01*
X119354070Y-117440000D01*
X122080000Y-117440000D01*
X122370839Y-117382148D01*
X122617401Y-117217401D01*
X123504802Y-116330000D01*
X124432560Y-116330000D01*
X124432560Y-117490000D01*
X124476838Y-117725317D01*
X124615910Y-117941441D01*
X124828110Y-118086431D01*
X125080000Y-118137440D01*
X126380000Y-118137440D01*
X126615317Y-118093162D01*
X126831441Y-117954090D01*
X126902563Y-117850000D01*
X130403644Y-117850000D01*
X129883644Y-118370000D01*
X115353356Y-118370000D01*
X113109178Y-116125822D01*
X112781510Y-115906882D01*
X112395000Y-115830000D01*
X106502696Y-115830000D01*
X106329370Y-115656371D01*
X106137273Y-115576605D01*
X106268143Y-115522397D01*
X106337608Y-115280213D01*
X105537000Y-114479605D01*
X105522858Y-114493748D01*
X105343253Y-114314143D01*
X105357395Y-114300000D01*
X105716605Y-114300000D01*
X106517213Y-115100608D01*
X106759397Y-115031143D01*
X106946144Y-114507698D01*
X106918362Y-113952632D01*
X106759397Y-113568857D01*
X106517213Y-113499392D01*
X105716605Y-114300000D01*
X105357395Y-114300000D01*
X104556787Y-113499392D01*
X104314603Y-113568857D01*
X104151470Y-114026114D01*
X100705000Y-110579644D01*
X100705000Y-98852302D01*
X104127856Y-98852302D01*
X104155638Y-99407368D01*
X104314603Y-99791143D01*
X104556787Y-99860608D01*
X105357395Y-99060000D01*
X104556787Y-98259392D01*
X104314603Y-98328857D01*
X104127856Y-98852302D01*
X100705000Y-98852302D01*
X100705000Y-98079787D01*
X104736392Y-98079787D01*
X105537000Y-98880395D01*
X106337608Y-98079787D01*
X106268143Y-97837603D01*
X105744698Y-97650856D01*
X105189632Y-97678638D01*
X104805857Y-97837603D01*
X104736392Y-98079787D01*
X100705000Y-98079787D01*
X100705000Y-89563302D01*
X100719857Y-89563302D01*
X100747639Y-90118368D01*
X100906604Y-90502143D01*
X101148788Y-90571608D01*
X101949396Y-89771000D01*
X101148788Y-88970392D01*
X100906604Y-89039857D01*
X100719857Y-89563302D01*
X100705000Y-89563302D01*
X100705000Y-88790787D01*
X101328393Y-88790787D01*
X102129001Y-89591395D01*
X102929609Y-88790787D01*
X102860144Y-88548603D01*
X102336699Y-88361856D01*
X101781633Y-88389638D01*
X101397858Y-88548603D01*
X101328393Y-88790787D01*
X100705000Y-88790787D01*
X100705000Y-84238356D01*
X103161356Y-81782000D01*
X160705304Y-81782000D01*
X160878630Y-81955629D01*
X161391900Y-82168757D01*
X161947661Y-82169242D01*
X162461303Y-81957010D01*
X162636619Y-81782000D01*
X163245304Y-81782000D01*
X163418630Y-81955629D01*
X163931900Y-82168757D01*
X164487661Y-82169242D01*
X165001303Y-81957010D01*
X165176619Y-81782000D01*
X166243000Y-81782000D01*
X166392748Y-81752213D01*
X171538392Y-81752213D01*
X171607857Y-81994397D01*
X172131302Y-82181144D01*
X172686368Y-82153362D01*
X173070143Y-81994397D01*
X173139608Y-81752213D01*
X174078392Y-81752213D01*
X174147857Y-81994397D01*
X174671302Y-82181144D01*
X175226368Y-82153362D01*
X175610143Y-81994397D01*
X175679608Y-81752213D01*
X174879000Y-80951605D01*
X174078392Y-81752213D01*
X173139608Y-81752213D01*
X172339000Y-80951605D01*
X171538392Y-81752213D01*
X166392748Y-81752213D01*
X166629510Y-81705118D01*
X166957178Y-81486178D01*
X167879054Y-80564302D01*
X170929856Y-80564302D01*
X170957638Y-81119368D01*
X171116603Y-81503143D01*
X171358787Y-81572608D01*
X172159395Y-80772000D01*
X172518605Y-80772000D01*
X173319213Y-81572608D01*
X173561397Y-81503143D01*
X173605453Y-81379656D01*
X173656603Y-81503143D01*
X173898787Y-81572608D01*
X174699395Y-80772000D01*
X175058605Y-80772000D01*
X175859213Y-81572608D01*
X176101397Y-81503143D01*
X176288144Y-80979698D01*
X176260362Y-80424632D01*
X176101397Y-80040857D01*
X175859213Y-79971392D01*
X175058605Y-80772000D01*
X174699395Y-80772000D01*
X173898787Y-79971392D01*
X173656603Y-80040857D01*
X173612547Y-80164344D01*
X173561397Y-80040857D01*
X173319213Y-79971392D01*
X172518605Y-80772000D01*
X172159395Y-80772000D01*
X171358787Y-79971392D01*
X171116603Y-80040857D01*
X170929856Y-80564302D01*
X167879054Y-80564302D01*
X168354178Y-80089178D01*
X168552887Y-79791787D01*
X171538392Y-79791787D01*
X172339000Y-80592395D01*
X173139608Y-79791787D01*
X174078392Y-79791787D01*
X174879000Y-80592395D01*
X175679608Y-79791787D01*
X175610143Y-79549603D01*
X175086698Y-79362856D01*
X174531632Y-79390638D01*
X174147857Y-79549603D01*
X174078392Y-79791787D01*
X173139608Y-79791787D01*
X173070143Y-79549603D01*
X172546698Y-79362856D01*
X171991632Y-79390638D01*
X171607857Y-79549603D01*
X171538392Y-79791787D01*
X168552887Y-79791787D01*
X168573118Y-79761510D01*
X168650000Y-79375000D01*
X168650000Y-79082640D01*
X169390060Y-79082640D01*
X169625377Y-79038362D01*
X169841501Y-78899290D01*
X169986491Y-78687090D01*
X170037500Y-78435200D01*
X170037500Y-74935080D01*
X169993222Y-74699763D01*
X169854150Y-74483639D01*
X169641950Y-74338649D01*
X169390060Y-74287640D01*
X165889940Y-74287640D01*
X165654623Y-74331918D01*
X165438499Y-74470990D01*
X165338500Y-74617343D01*
X165338500Y-72763760D01*
X165351613Y-72795418D01*
X165530241Y-72974047D01*
X165763630Y-73070720D01*
X167354250Y-73070720D01*
X167513000Y-72911970D01*
X167513000Y-70812660D01*
X167767000Y-70812660D01*
X167767000Y-72911970D01*
X167925750Y-73070720D01*
X169516370Y-73070720D01*
X169749759Y-72974047D01*
X169928387Y-72795418D01*
X170025060Y-72562029D01*
X170025060Y-70971410D01*
X169866310Y-70812660D01*
X167767000Y-70812660D01*
X167513000Y-70812660D01*
X165413690Y-70812660D01*
X165254940Y-70971410D01*
X165254940Y-71638977D01*
X165155150Y-71483899D01*
X164942950Y-71338909D01*
X164691060Y-71287900D01*
X161190940Y-71287900D01*
X160955623Y-71332178D01*
X160739499Y-71471250D01*
X160594509Y-71683450D01*
X160543500Y-71935340D01*
X160543500Y-75435460D01*
X160587778Y-75670777D01*
X160726850Y-75886901D01*
X160939050Y-76031891D01*
X161190940Y-76082900D01*
X164691060Y-76082900D01*
X164926377Y-76038622D01*
X165142501Y-75899550D01*
X165242500Y-75753197D01*
X165242500Y-78435200D01*
X165286778Y-78670517D01*
X165425850Y-78886641D01*
X165638050Y-79031631D01*
X165889940Y-79082640D01*
X166504004Y-79082640D01*
X165824644Y-79762000D01*
X165176696Y-79762000D01*
X165003370Y-79588371D01*
X164490100Y-79375243D01*
X163934339Y-79374758D01*
X163420697Y-79586990D01*
X163245381Y-79762000D01*
X162636696Y-79762000D01*
X162463370Y-79588371D01*
X161950100Y-79375243D01*
X161394339Y-79374758D01*
X160880697Y-79586990D01*
X160705381Y-79762000D01*
X102743000Y-79762000D01*
X102356490Y-79838882D01*
X102028822Y-80057822D01*
X98980822Y-83105822D01*
X98761882Y-83433490D01*
X98685000Y-83820000D01*
X98685000Y-89580361D01*
X98443061Y-89337999D01*
X97704569Y-89031350D01*
X96904941Y-89030652D01*
X96165915Y-89336012D01*
X95600000Y-89900940D01*
X95293351Y-90639432D01*
X95292653Y-91439060D01*
X94055000Y-91439060D01*
X94055000Y-68452060D01*
X95292653Y-68452060D01*
X95598013Y-69191086D01*
X96162941Y-69757001D01*
X96901433Y-70063650D01*
X97701061Y-70064348D01*
X98440087Y-69758988D01*
X99006002Y-69194060D01*
X99312651Y-68455568D01*
X99312654Y-68452060D01*
X153331653Y-68452060D01*
X153637013Y-69191086D01*
X154201941Y-69757001D01*
X154940433Y-70063650D01*
X155740061Y-70064348D01*
X156479087Y-69758988D01*
X157045002Y-69194060D01*
X157204772Y-68809291D01*
X165254940Y-68809291D01*
X165254940Y-70399910D01*
X165413690Y-70558660D01*
X167513000Y-70558660D01*
X167513000Y-68459350D01*
X167767000Y-68459350D01*
X167767000Y-70558660D01*
X169866310Y-70558660D01*
X170025060Y-70399910D01*
X170025060Y-68809291D01*
X169928387Y-68575902D01*
X169749759Y-68397273D01*
X169516370Y-68300600D01*
X167925750Y-68300600D01*
X167767000Y-68459350D01*
X167513000Y-68459350D01*
X167354250Y-68300600D01*
X165763630Y-68300600D01*
X165530241Y-68397273D01*
X165351613Y-68575902D01*
X165254940Y-68809291D01*
X157204772Y-68809291D01*
X157351651Y-68455568D01*
X157352349Y-67655940D01*
X157046989Y-66916914D01*
X156482061Y-66350999D01*
X155743569Y-66044350D01*
X154943941Y-66043652D01*
X154204915Y-66349012D01*
X153639000Y-66913940D01*
X153332351Y-67652432D01*
X153331653Y-68452060D01*
X99312654Y-68452060D01*
X99313349Y-67655940D01*
X99007989Y-66916914D01*
X98443061Y-66350999D01*
X97704569Y-66044350D01*
X96904941Y-66043652D01*
X96165915Y-66349012D01*
X95600000Y-66913940D01*
X95293351Y-67652432D01*
X95292653Y-68452060D01*
X94055000Y-68452060D01*
X94055000Y-64845000D01*
X176455000Y-64845000D01*
X176455000Y-137720000D01*
X176455000Y-137720000D01*
G37*
X176455000Y-137720000D02*
X94055000Y-137720000D01*
X94055000Y-133604000D01*
X107708960Y-133604000D01*
X107708960Y-135636000D01*
X107753238Y-135871317D01*
X107892310Y-136087441D01*
X108104510Y-136232431D01*
X108356400Y-136283440D01*
X110083600Y-136283440D01*
X110318917Y-136239162D01*
X110535041Y-136100090D01*
X110680031Y-135887890D01*
X110699232Y-135793073D01*
X110857964Y-135970732D01*
X111385209Y-136224709D01*
X111400974Y-136227358D01*
X111633000Y-136106217D01*
X111633000Y-134747000D01*
X111887000Y-134747000D01*
X111887000Y-136106217D01*
X112119026Y-136227358D01*
X112134791Y-136224709D01*
X112662036Y-135970732D01*
X113030000Y-135558892D01*
X113397964Y-135970732D01*
X113925209Y-136224709D01*
X113940974Y-136227358D01*
X114173000Y-136106217D01*
X114173000Y-134747000D01*
X111887000Y-134747000D01*
X111633000Y-134747000D01*
X111613000Y-134747000D01*
X111613000Y-134493000D01*
X111633000Y-134493000D01*
X111633000Y-133133783D01*
X111887000Y-133133783D01*
X111887000Y-134493000D01*
X114173000Y-134493000D01*
X114173000Y-133133783D01*
X114427000Y-133133783D01*
X114427000Y-134493000D01*
X114447000Y-134493000D01*
X114447000Y-134747000D01*
X114427000Y-134747000D01*
X114427000Y-136106217D01*
X114659026Y-136227358D01*
X114674791Y-136224709D01*
X115202036Y-135970732D01*
X115573539Y-135554931D01*
X115780330Y-135864415D01*
X116266511Y-136189271D01*
X116840000Y-136303345D01*
X117413489Y-136189271D01*
X117899670Y-135864415D01*
X118224526Y-135378234D01*
X118303933Y-134979026D01*
X124122642Y-134979026D01*
X124125291Y-134994791D01*
X124379268Y-135522036D01*
X124815680Y-135911954D01*
X125368087Y-136105184D01*
X125603000Y-135960924D01*
X125603000Y-134747000D01*
X125857000Y-134747000D01*
X125857000Y-135960924D01*
X126091913Y-136105184D01*
X126644320Y-135911954D01*
X127080732Y-135522036D01*
X127334709Y-134994791D01*
X127337358Y-134979026D01*
X127216217Y-134747000D01*
X125857000Y-134747000D01*
X125603000Y-134747000D01*
X124243783Y-134747000D01*
X124122642Y-134979026D01*
X118303933Y-134979026D01*
X118338600Y-134804745D01*
X118338600Y-134435255D01*
X118224526Y-133861766D01*
X117899670Y-133375585D01*
X117413489Y-133050729D01*
X116840000Y-132936655D01*
X116266511Y-133050729D01*
X115780330Y-133375585D01*
X115573539Y-133685069D01*
X115202036Y-133269268D01*
X114674791Y-133015291D01*
X114659026Y-133012642D01*
X114427000Y-133133783D01*
X114173000Y-133133783D01*
X113940974Y-133012642D01*
X113925209Y-133015291D01*
X113397964Y-133269268D01*
X113030000Y-133681108D01*
X112662036Y-133269268D01*
X112134791Y-133015291D01*
X112119026Y-133012642D01*
X111887000Y-133133783D01*
X111633000Y-133133783D01*
X111400974Y-133012642D01*
X111385209Y-133015291D01*
X110857964Y-133269268D01*
X110701093Y-133444845D01*
X110686762Y-133368683D01*
X110547690Y-133152559D01*
X110335490Y-133007569D01*
X110083600Y-132956560D01*
X108356400Y-132956560D01*
X108121083Y-133000838D01*
X107904959Y-133139910D01*
X107759969Y-133352110D01*
X107708960Y-133604000D01*
X94055000Y-133604000D01*
X94055000Y-132080000D01*
X124046655Y-132080000D01*
X124160729Y-132653489D01*
X124485585Y-133139670D01*
X124795069Y-133346461D01*
X124379268Y-133717964D01*
X124125291Y-134245209D01*
X124122642Y-134260974D01*
X124243783Y-134493000D01*
X125603000Y-134493000D01*
X125603000Y-134473000D01*
X125857000Y-134473000D01*
X125857000Y-134493000D01*
X127216217Y-134493000D01*
X127337358Y-134260974D01*
X127334709Y-134245209D01*
X127080732Y-133717964D01*
X126953179Y-133604000D01*
X135013960Y-133604000D01*
X135013960Y-135636000D01*
X135058238Y-135871317D01*
X135197310Y-136087441D01*
X135409510Y-136232431D01*
X135661400Y-136283440D01*
X137388600Y-136283440D01*
X137623917Y-136239162D01*
X137840041Y-136100090D01*
X137985031Y-135887890D01*
X138004232Y-135793073D01*
X138162964Y-135970732D01*
X138690209Y-136224709D01*
X138705974Y-136227358D01*
X138938000Y-136106217D01*
X138938000Y-134747000D01*
X139192000Y-134747000D01*
X139192000Y-136106217D01*
X139424026Y-136227358D01*
X139439791Y-136224709D01*
X139967036Y-135970732D01*
X140335000Y-135558892D01*
X140702964Y-135970732D01*
X141230209Y-136224709D01*
X141245974Y-136227358D01*
X141478000Y-136106217D01*
X141478000Y-134747000D01*
X139192000Y-134747000D01*
X138938000Y-134747000D01*
X138918000Y-134747000D01*
X138918000Y-134493000D01*
X138938000Y-134493000D01*
X138938000Y-133133783D01*
X139192000Y-133133783D01*
X139192000Y-134493000D01*
X141478000Y-134493000D01*
X141478000Y-133133783D01*
X141732000Y-133133783D01*
X141732000Y-134493000D01*
X141752000Y-134493000D01*
X141752000Y-134747000D01*
X141732000Y-134747000D01*
X141732000Y-136106217D01*
X141964026Y-136227358D01*
X141979791Y-136224709D01*
X142507036Y-135970732D01*
X142878539Y-135554931D01*
X143085330Y-135864415D01*
X143571511Y-136189271D01*
X144145000Y-136303345D01*
X144718489Y-136189271D01*
X145204670Y-135864415D01*
X145529526Y-135378234D01*
X145643600Y-134804745D01*
X145643600Y-134435255D01*
X145529526Y-133861766D01*
X145204670Y-133375585D01*
X144718489Y-133050729D01*
X144145000Y-132936655D01*
X143571511Y-133050729D01*
X143085330Y-133375585D01*
X142878539Y-133685069D01*
X142507036Y-133269268D01*
X141979791Y-133015291D01*
X141964026Y-133012642D01*
X141732000Y-133133783D01*
X141478000Y-133133783D01*
X141245974Y-133012642D01*
X141230209Y-133015291D01*
X140702964Y-133269268D01*
X140335000Y-133681108D01*
X139967036Y-133269268D01*
X139439791Y-133015291D01*
X139424026Y-133012642D01*
X139192000Y-133133783D01*
X138938000Y-133133783D01*
X138705974Y-133012642D01*
X138690209Y-133015291D01*
X138162964Y-133269268D01*
X138006093Y-133444845D01*
X137991762Y-133368683D01*
X137852690Y-133152559D01*
X137640490Y-133007569D01*
X137388600Y-132956560D01*
X135661400Y-132956560D01*
X135426083Y-133000838D01*
X135209959Y-133139910D01*
X135064969Y-133352110D01*
X135013960Y-133604000D01*
X126953179Y-133604000D01*
X126664931Y-133346461D01*
X126974415Y-133139670D01*
X127299271Y-132653489D01*
X127413345Y-132080000D01*
X127299271Y-131506511D01*
X126974415Y-131020330D01*
X126960087Y-131010757D01*
X126981317Y-131006762D01*
X127197441Y-130867690D01*
X127342431Y-130655490D01*
X127393440Y-130403600D01*
X127393440Y-128676400D01*
X127364764Y-128524000D01*
X135013960Y-128524000D01*
X135013960Y-130556000D01*
X135058238Y-130791317D01*
X135197310Y-131007441D01*
X135409510Y-131152431D01*
X135661400Y-131203440D01*
X137388600Y-131203440D01*
X137623917Y-131159162D01*
X137840041Y-131020090D01*
X137985031Y-130807890D01*
X137993400Y-130766561D01*
X138005330Y-130784415D01*
X138491511Y-131109271D01*
X139065000Y-131223345D01*
X139638489Y-131109271D01*
X140124670Y-130784415D01*
X140335000Y-130469634D01*
X140545330Y-130784415D01*
X141031511Y-131109271D01*
X141605000Y-131223345D01*
X142178489Y-131109271D01*
X142664670Y-130784415D01*
X142875000Y-130469634D01*
X143085330Y-130784415D01*
X143571511Y-131109271D01*
X144145000Y-131223345D01*
X144718489Y-131109271D01*
X145204670Y-130784415D01*
X145529526Y-130298234D01*
X145643600Y-129724745D01*
X145643600Y-129355255D01*
X145529526Y-128781766D01*
X145204670Y-128295585D01*
X144718489Y-127970729D01*
X144145000Y-127856655D01*
X143571511Y-127970729D01*
X143085330Y-128295585D01*
X142875000Y-128610366D01*
X142664670Y-128295585D01*
X142178489Y-127970729D01*
X141605000Y-127856655D01*
X141031511Y-127970729D01*
X140545330Y-128295585D01*
X140335000Y-128610366D01*
X140124670Y-128295585D01*
X139638489Y-127970729D01*
X139065000Y-127856655D01*
X138491511Y-127970729D01*
X138005330Y-128295585D01*
X137995757Y-128309913D01*
X137991762Y-128288683D01*
X137852690Y-128072559D01*
X137640490Y-127927569D01*
X137388600Y-127876560D01*
X135661400Y-127876560D01*
X135426083Y-127920838D01*
X135209959Y-128059910D01*
X135064969Y-128272110D01*
X135013960Y-128524000D01*
X127364764Y-128524000D01*
X127349162Y-128441083D01*
X127210090Y-128224959D01*
X126997890Y-128079969D01*
X126746000Y-128028960D01*
X124714000Y-128028960D01*
X124478683Y-128073238D01*
X124262559Y-128212310D01*
X124117569Y-128424510D01*
X124066560Y-128676400D01*
X124066560Y-130403600D01*
X124110838Y-130638917D01*
X124249910Y-130855041D01*
X124462110Y-131000031D01*
X124503439Y-131008400D01*
X124485585Y-131020330D01*
X124160729Y-131506511D01*
X124046655Y-132080000D01*
X94055000Y-132080000D01*
X94055000Y-127889000D01*
X107708960Y-127889000D01*
X107708960Y-129921000D01*
X107753238Y-130156317D01*
X107892310Y-130372441D01*
X108104510Y-130517431D01*
X108356400Y-130568440D01*
X110083600Y-130568440D01*
X110318917Y-130524162D01*
X110535041Y-130385090D01*
X110680031Y-130172890D01*
X110688400Y-130131561D01*
X110700330Y-130149415D01*
X111186511Y-130474271D01*
X111760000Y-130588345D01*
X112333489Y-130474271D01*
X112819670Y-130149415D01*
X113030000Y-129834634D01*
X113240330Y-130149415D01*
X113726511Y-130474271D01*
X114300000Y-130588345D01*
X114873489Y-130474271D01*
X115359670Y-130149415D01*
X115570000Y-129834634D01*
X115780330Y-130149415D01*
X116266511Y-130474271D01*
X116840000Y-130588345D01*
X117413489Y-130474271D01*
X117899670Y-130149415D01*
X118224526Y-129663234D01*
X118338600Y-129089745D01*
X118338600Y-128720255D01*
X118224526Y-128146766D01*
X117899670Y-127660585D01*
X117413489Y-127335729D01*
X116840000Y-127221655D01*
X116266511Y-127335729D01*
X115780330Y-127660585D01*
X115570000Y-127975366D01*
X115359670Y-127660585D01*
X114873489Y-127335729D01*
X114300000Y-127221655D01*
X113726511Y-127335729D01*
X113240330Y-127660585D01*
X113030000Y-127975366D01*
X112819670Y-127660585D01*
X112333489Y-127335729D01*
X111760000Y-127221655D01*
X111186511Y-127335729D01*
X110700330Y-127660585D01*
X110690757Y-127674913D01*
X110686762Y-127653683D01*
X110547690Y-127437559D01*
X110335490Y-127292569D01*
X110083600Y-127241560D01*
X108356400Y-127241560D01*
X108121083Y-127285838D01*
X107904959Y-127424910D01*
X107759969Y-127637110D01*
X107708960Y-127889000D01*
X94055000Y-127889000D01*
X94055000Y-114159078D01*
X97127378Y-114159078D01*
X97156917Y-114669428D01*
X97295389Y-115003729D01*
X97525984Y-115059410D01*
X98245395Y-114340000D01*
X98604605Y-114340000D01*
X99324016Y-115059410D01*
X99554611Y-115003729D01*
X99722622Y-114520922D01*
X99693083Y-114010572D01*
X99554611Y-113676271D01*
X99324016Y-113620590D01*
X98604605Y-114340000D01*
X98245395Y-114340000D01*
X97525984Y-113620590D01*
X97295389Y-113676271D01*
X97127378Y-114159078D01*
X94055000Y-114159078D01*
X94055000Y-113440984D01*
X97705590Y-113440984D01*
X98425000Y-114160395D01*
X99144410Y-113440984D01*
X99088729Y-113210389D01*
X98605922Y-113042378D01*
X98095572Y-113071917D01*
X97761271Y-113210389D01*
X97705590Y-113440984D01*
X94055000Y-113440984D01*
X94055000Y-91439060D01*
X95292653Y-91439060D01*
X95598013Y-92178086D01*
X96162941Y-92744001D01*
X96901433Y-93050650D01*
X97701061Y-93051348D01*
X98440087Y-92745988D01*
X98685000Y-92501502D01*
X98685000Y-110998000D01*
X98761882Y-111384510D01*
X98980822Y-111712178D01*
X103098644Y-115830000D01*
X99597931Y-115830000D01*
X99539090Y-115738559D01*
X99326890Y-115593569D01*
X99075000Y-115542560D01*
X98912615Y-115542560D01*
X99088729Y-115469611D01*
X99144410Y-115239016D01*
X98425000Y-114519605D01*
X97705590Y-115239016D01*
X97761271Y-115469611D01*
X97970902Y-115542560D01*
X97775000Y-115542560D01*
X97539683Y-115586838D01*
X97323559Y-115725910D01*
X97178569Y-115938110D01*
X97127560Y-116190000D01*
X97127560Y-117490000D01*
X97171838Y-117725317D01*
X97310910Y-117941441D01*
X97523110Y-118086431D01*
X97775000Y-118137440D01*
X99075000Y-118137440D01*
X99310317Y-118093162D01*
X99526441Y-117954090D01*
X99597563Y-117850000D01*
X104571304Y-117850000D01*
X104744630Y-118023629D01*
X105257900Y-118236757D01*
X105813661Y-118237242D01*
X106327303Y-118025010D01*
X106502619Y-117850000D01*
X111976644Y-117850000D01*
X114220822Y-120094178D01*
X114548489Y-120313118D01*
X114935000Y-120390000D01*
X130302000Y-120390000D01*
X130688510Y-120313118D01*
X131016178Y-120094178D01*
X132873328Y-118237028D01*
X133118661Y-118237242D01*
X133632303Y-118025010D01*
X134025629Y-117632370D01*
X134238757Y-117119100D01*
X134239242Y-116563339D01*
X134142829Y-116330000D01*
X144037198Y-116330000D01*
X144077817Y-116370619D01*
X144065243Y-116400900D01*
X144064758Y-116956661D01*
X144276990Y-117470303D01*
X144669630Y-117863629D01*
X145182900Y-118076757D01*
X145738661Y-118077242D01*
X145771055Y-118063857D01*
X146560000Y-118852802D01*
X146560000Y-132715000D01*
X146617852Y-133005839D01*
X146782599Y-133252401D01*
X149322599Y-135792401D01*
X149569160Y-135957148D01*
X149617414Y-135966746D01*
X149860000Y-136015000D01*
X154377469Y-136015000D01*
X154389990Y-136045303D01*
X154782630Y-136438629D01*
X155295900Y-136651757D01*
X155851661Y-136652242D01*
X156365303Y-136440010D01*
X156758629Y-136047370D01*
X156971757Y-135534100D01*
X156972242Y-134978339D01*
X156760010Y-134464697D01*
X156367370Y-134071371D01*
X156159488Y-133985051D01*
X156365303Y-133900010D01*
X156758629Y-133507370D01*
X156971757Y-132994100D01*
X156972242Y-132438339D01*
X156760010Y-131924697D01*
X156367370Y-131531371D01*
X156159488Y-131445051D01*
X156365303Y-131360010D01*
X156758629Y-130967370D01*
X156971757Y-130454100D01*
X156972242Y-129898339D01*
X156760010Y-129384697D01*
X156367370Y-128991371D01*
X156159488Y-128905051D01*
X156365303Y-128820010D01*
X156758629Y-128427370D01*
X156971757Y-127914100D01*
X156972242Y-127358339D01*
X156760010Y-126844697D01*
X156367370Y-126451371D01*
X156159488Y-126365051D01*
X156365303Y-126280010D01*
X156758629Y-125887370D01*
X156772070Y-125855000D01*
X157480000Y-125855000D01*
X157770839Y-125797148D01*
X158017401Y-125632401D01*
X158652401Y-124997401D01*
X158817148Y-124750839D01*
X158875000Y-124460000D01*
X158875000Y-114935000D01*
X158833686Y-114727302D01*
X158817148Y-114644160D01*
X158652401Y-114397599D01*
X157382401Y-113127599D01*
X157135839Y-112962852D01*
X156873523Y-112910674D01*
X156971757Y-112674100D01*
X156972242Y-112118339D01*
X156875829Y-111885000D01*
X164150198Y-111885000D01*
X169430817Y-117165619D01*
X169418243Y-117195900D01*
X169417758Y-117751661D01*
X169629990Y-118265303D01*
X170022630Y-118658629D01*
X170230512Y-118744949D01*
X170024697Y-118829990D01*
X169631371Y-119222630D01*
X169418243Y-119735900D01*
X169417758Y-120291661D01*
X169629990Y-120805303D01*
X170022630Y-121198629D01*
X170230512Y-121284949D01*
X170024697Y-121369990D01*
X169631371Y-121762630D01*
X169418243Y-122275900D01*
X169417758Y-122831661D01*
X169629990Y-123345303D01*
X170022630Y-123738629D01*
X170230512Y-123824949D01*
X170024697Y-123909990D01*
X169631371Y-124302630D01*
X169418243Y-124815900D01*
X169417758Y-125371661D01*
X169629990Y-125885303D01*
X170022630Y-126278629D01*
X170230512Y-126364949D01*
X170024697Y-126449990D01*
X169631371Y-126842630D01*
X169418243Y-127355900D01*
X169417758Y-127911661D01*
X169629990Y-128425303D01*
X170022630Y-128818629D01*
X170230512Y-128904949D01*
X170024697Y-128989990D01*
X169631371Y-129382630D01*
X169418243Y-129895900D01*
X169417758Y-130451661D01*
X169629990Y-130965303D01*
X170022630Y-131358629D01*
X170230512Y-131444949D01*
X170024697Y-131529990D01*
X169631371Y-131922630D01*
X169418243Y-132435900D01*
X169417758Y-132991661D01*
X169629990Y-133505303D01*
X170022630Y-133898629D01*
X170230512Y-133984949D01*
X170024697Y-134069990D01*
X169631371Y-134462630D01*
X169418243Y-134975900D01*
X169417758Y-135531661D01*
X169629990Y-136045303D01*
X170022630Y-136438629D01*
X170535900Y-136651757D01*
X171091661Y-136652242D01*
X171605303Y-136440010D01*
X171998629Y-136047370D01*
X172211757Y-135534100D01*
X172212242Y-134978339D01*
X172000010Y-134464697D01*
X171607370Y-134071371D01*
X171399488Y-133985051D01*
X171605303Y-133900010D01*
X171998629Y-133507370D01*
X172211757Y-132994100D01*
X172212242Y-132438339D01*
X172000010Y-131924697D01*
X171607370Y-131531371D01*
X171399488Y-131445051D01*
X171605303Y-131360010D01*
X171998629Y-130967370D01*
X172211757Y-130454100D01*
X172212242Y-129898339D01*
X172000010Y-129384697D01*
X171607370Y-128991371D01*
X171399488Y-128905051D01*
X171605303Y-128820010D01*
X171998629Y-128427370D01*
X172211757Y-127914100D01*
X172212242Y-127358339D01*
X172000010Y-126844697D01*
X171607370Y-126451371D01*
X171399488Y-126365051D01*
X171605303Y-126280010D01*
X171998629Y-125887370D01*
X172211757Y-125374100D01*
X172212242Y-124818339D01*
X172000010Y-124304697D01*
X171607370Y-123911371D01*
X171399488Y-123825051D01*
X171605303Y-123740010D01*
X171998629Y-123347370D01*
X172211757Y-122834100D01*
X172212242Y-122278339D01*
X172000010Y-121764697D01*
X171607370Y-121371371D01*
X171399488Y-121285051D01*
X171605303Y-121200010D01*
X171998629Y-120807370D01*
X172211757Y-120294100D01*
X172212242Y-119738339D01*
X172000010Y-119224697D01*
X171607370Y-118831371D01*
X171399488Y-118745051D01*
X171605303Y-118660010D01*
X171998629Y-118267370D01*
X172211757Y-117754100D01*
X172212242Y-117198339D01*
X172000010Y-116684697D01*
X171607370Y-116291371D01*
X171399488Y-116205051D01*
X171605303Y-116120010D01*
X171998629Y-115727370D01*
X172211757Y-115214100D01*
X172212242Y-114658339D01*
X172000010Y-114144697D01*
X171607370Y-113751371D01*
X171399488Y-113665051D01*
X171605303Y-113580010D01*
X171998629Y-113187370D01*
X172211757Y-112674100D01*
X172212242Y-112118339D01*
X172000010Y-111604697D01*
X171607370Y-111211371D01*
X171415273Y-111131605D01*
X171546143Y-111077397D01*
X171615608Y-110835213D01*
X170815000Y-110034605D01*
X170014392Y-110835213D01*
X170083857Y-111077397D01*
X170224318Y-111127509D01*
X170024697Y-111209990D01*
X169631371Y-111602630D01*
X169418243Y-112115900D01*
X169417758Y-112671661D01*
X169629990Y-113185303D01*
X170022630Y-113578629D01*
X170230512Y-113664949D01*
X170024697Y-113749990D01*
X169631371Y-114142630D01*
X169418243Y-114655900D01*
X169417940Y-115003138D01*
X165002401Y-110587599D01*
X164755839Y-110422852D01*
X164465000Y-110365000D01*
X158679802Y-110365000D01*
X159287401Y-109757401D01*
X159360966Y-109647302D01*
X169405856Y-109647302D01*
X169433638Y-110202368D01*
X169592603Y-110586143D01*
X169834787Y-110655608D01*
X170635395Y-109855000D01*
X170994605Y-109855000D01*
X171795213Y-110655608D01*
X172037397Y-110586143D01*
X172224144Y-110062698D01*
X172196362Y-109507632D01*
X172037397Y-109123857D01*
X171795213Y-109054392D01*
X170994605Y-109855000D01*
X170635395Y-109855000D01*
X169834787Y-109054392D01*
X169592603Y-109123857D01*
X169405856Y-109647302D01*
X159360966Y-109647302D01*
X159452148Y-109510839D01*
X159510000Y-109220000D01*
X159510000Y-99060000D01*
X159468686Y-98852302D01*
X159452148Y-98769160D01*
X159287401Y-98522599D01*
X158017401Y-97252599D01*
X157770839Y-97087852D01*
X157502215Y-97034419D01*
X157299029Y-96730330D01*
X156812848Y-96405474D01*
X156239359Y-96291400D01*
X156180641Y-96291400D01*
X155607152Y-96405474D01*
X155141558Y-96716574D01*
X155136762Y-96691083D01*
X154997690Y-96474959D01*
X154785490Y-96329969D01*
X154533600Y-96278960D01*
X153233762Y-96278960D01*
X151916694Y-94961892D01*
X152058001Y-94990000D01*
X158331644Y-94990000D01*
X160661000Y-97319356D01*
X160661000Y-98348304D01*
X160487371Y-98521630D01*
X160274243Y-99034900D01*
X160273758Y-99590661D01*
X160485990Y-100104303D01*
X160878630Y-100497629D01*
X161391900Y-100710757D01*
X161947661Y-100711242D01*
X162461303Y-100499010D01*
X162636619Y-100324000D01*
X163201000Y-100324000D01*
X163201000Y-104521000D01*
X163277882Y-104907510D01*
X163496822Y-105235178D01*
X166290822Y-108029178D01*
X166618490Y-108248118D01*
X167005000Y-108325000D01*
X169849304Y-108325000D01*
X170022630Y-108498629D01*
X170214727Y-108578395D01*
X170083857Y-108632603D01*
X170014392Y-108874787D01*
X170815000Y-109675395D01*
X171615608Y-108874787D01*
X171546143Y-108632603D01*
X171405682Y-108582491D01*
X171605303Y-108500010D01*
X171998629Y-108107370D01*
X172211757Y-107594100D01*
X172212242Y-107038339D01*
X172000010Y-106524697D01*
X171607370Y-106131371D01*
X171094100Y-105918243D01*
X170538339Y-105917758D01*
X170024697Y-106129990D01*
X169849381Y-106305000D01*
X167423356Y-106305000D01*
X165221000Y-104102644D01*
X165221000Y-100294213D01*
X171538392Y-100294213D01*
X171607857Y-100536397D01*
X172131302Y-100723144D01*
X172686368Y-100695362D01*
X173070143Y-100536397D01*
X173139608Y-100294213D01*
X174078392Y-100294213D01*
X174147857Y-100536397D01*
X174671302Y-100723144D01*
X175226368Y-100695362D01*
X175610143Y-100536397D01*
X175679608Y-100294213D01*
X174879000Y-99493605D01*
X174078392Y-100294213D01*
X173139608Y-100294213D01*
X172339000Y-99493605D01*
X171538392Y-100294213D01*
X165221000Y-100294213D01*
X165221000Y-100279696D01*
X165394629Y-100106370D01*
X165607757Y-99593100D01*
X165608181Y-99106302D01*
X170929856Y-99106302D01*
X170957638Y-99661368D01*
X171116603Y-100045143D01*
X171358787Y-100114608D01*
X172159395Y-99314000D01*
X172518605Y-99314000D01*
X173319213Y-100114608D01*
X173561397Y-100045143D01*
X173605453Y-99921656D01*
X173656603Y-100045143D01*
X173898787Y-100114608D01*
X174699395Y-99314000D01*
X175058605Y-99314000D01*
X175859213Y-100114608D01*
X176101397Y-100045143D01*
X176288144Y-99521698D01*
X176260362Y-98966632D01*
X176101397Y-98582857D01*
X175859213Y-98513392D01*
X175058605Y-99314000D01*
X174699395Y-99314000D01*
X173898787Y-98513392D01*
X173656603Y-98582857D01*
X173612547Y-98706344D01*
X173561397Y-98582857D01*
X173319213Y-98513392D01*
X172518605Y-99314000D01*
X172159395Y-99314000D01*
X171358787Y-98513392D01*
X171116603Y-98582857D01*
X170929856Y-99106302D01*
X165608181Y-99106302D01*
X165608242Y-99037339D01*
X165396010Y-98523697D01*
X165206432Y-98333787D01*
X171538392Y-98333787D01*
X172339000Y-99134395D01*
X173139608Y-98333787D01*
X174078392Y-98333787D01*
X174879000Y-99134395D01*
X175679608Y-98333787D01*
X175610143Y-98091603D01*
X175086698Y-97904856D01*
X174531632Y-97932638D01*
X174147857Y-98091603D01*
X174078392Y-98333787D01*
X173139608Y-98333787D01*
X173070143Y-98091603D01*
X172546698Y-97904856D01*
X171991632Y-97932638D01*
X171607857Y-98091603D01*
X171538392Y-98333787D01*
X165206432Y-98333787D01*
X165003370Y-98130371D01*
X164490100Y-97917243D01*
X163934339Y-97916758D01*
X163420697Y-98128990D01*
X163245381Y-98304000D01*
X162681000Y-98304000D01*
X162681000Y-96901000D01*
X162604118Y-96514490D01*
X162385178Y-96186822D01*
X159464178Y-93265822D01*
X159136510Y-93046882D01*
X158750000Y-92970000D01*
X155936938Y-92970000D01*
X156479087Y-92745988D01*
X157045002Y-92181060D01*
X157351651Y-91442568D01*
X157352349Y-90642940D01*
X157046989Y-89903914D01*
X156482061Y-89337999D01*
X155743569Y-89031350D01*
X154943941Y-89030652D01*
X154204915Y-89336012D01*
X153639000Y-89900940D01*
X153332351Y-90639432D01*
X153331653Y-91439060D01*
X153637013Y-92178086D01*
X154201941Y-92744001D01*
X154746206Y-92970000D01*
X152476357Y-92970000D01*
X151786029Y-92279672D01*
X151786243Y-92034339D01*
X151574011Y-91520697D01*
X151181371Y-91127371D01*
X150973489Y-91041051D01*
X151179304Y-90956010D01*
X151572630Y-90563370D01*
X151785758Y-90050100D01*
X151786243Y-89494339D01*
X151574011Y-88980697D01*
X151181371Y-88587371D01*
X150668101Y-88374243D01*
X150112340Y-88373758D01*
X149598698Y-88585990D01*
X149205372Y-88978630D01*
X149119052Y-89186512D01*
X149034011Y-88980697D01*
X148641371Y-88587371D01*
X148128101Y-88374243D01*
X147572340Y-88373758D01*
X147058698Y-88585990D01*
X146665372Y-88978630D01*
X146579052Y-89186512D01*
X146494011Y-88980697D01*
X146101371Y-88587371D01*
X145588101Y-88374243D01*
X145032340Y-88373758D01*
X144518698Y-88585990D01*
X144125372Y-88978630D01*
X144039052Y-89186512D01*
X143954011Y-88980697D01*
X143561371Y-88587371D01*
X143048101Y-88374243D01*
X142492340Y-88373758D01*
X141978698Y-88585990D01*
X141585372Y-88978630D01*
X141505606Y-89170727D01*
X141451398Y-89039857D01*
X141209214Y-88970392D01*
X140408606Y-89771000D01*
X141209214Y-90571608D01*
X141451398Y-90502143D01*
X141501510Y-90361682D01*
X141583991Y-90561303D01*
X141976631Y-90954629D01*
X142184513Y-91040949D01*
X141978698Y-91125990D01*
X141585372Y-91518630D01*
X141499052Y-91726512D01*
X141414011Y-91520697D01*
X141021371Y-91127371D01*
X140829274Y-91047605D01*
X140960144Y-90993397D01*
X141029609Y-90751213D01*
X140229001Y-89950605D01*
X139428393Y-90751213D01*
X139497858Y-90993397D01*
X139638319Y-91043509D01*
X139438698Y-91125990D01*
X139045372Y-91518630D01*
X138959052Y-91726512D01*
X138874011Y-91520697D01*
X138481371Y-91127371D01*
X138273489Y-91041051D01*
X138479304Y-90956010D01*
X138872630Y-90563370D01*
X138952396Y-90371273D01*
X139006604Y-90502143D01*
X139248788Y-90571608D01*
X140049396Y-89771000D01*
X139248788Y-88970392D01*
X139006604Y-89039857D01*
X138956492Y-89180318D01*
X138874011Y-88980697D01*
X138684433Y-88790787D01*
X139428393Y-88790787D01*
X140229001Y-89591395D01*
X141029609Y-88790787D01*
X140960144Y-88548603D01*
X140436699Y-88361856D01*
X139881633Y-88389638D01*
X139497858Y-88548603D01*
X139428393Y-88790787D01*
X138684433Y-88790787D01*
X138481371Y-88587371D01*
X137968101Y-88374243D01*
X137412340Y-88373758D01*
X136898698Y-88585990D01*
X136505372Y-88978630D01*
X136419052Y-89186512D01*
X136334011Y-88980697D01*
X135941371Y-88587371D01*
X135428101Y-88374243D01*
X134872340Y-88373758D01*
X134358698Y-88585990D01*
X133965372Y-88978630D01*
X133879052Y-89186512D01*
X133794011Y-88980697D01*
X133401371Y-88587371D01*
X132888101Y-88374243D01*
X132332340Y-88373758D01*
X131818698Y-88585990D01*
X131425372Y-88978630D01*
X131339052Y-89186512D01*
X131254011Y-88980697D01*
X130861371Y-88587371D01*
X130348101Y-88374243D01*
X129792340Y-88373758D01*
X129278698Y-88585990D01*
X128885372Y-88978630D01*
X128799052Y-89186512D01*
X128714011Y-88980697D01*
X128321371Y-88587371D01*
X127808101Y-88374243D01*
X127252340Y-88373758D01*
X126738698Y-88585990D01*
X126345372Y-88978630D01*
X126259052Y-89186512D01*
X126174011Y-88980697D01*
X125781371Y-88587371D01*
X125268101Y-88374243D01*
X124712340Y-88373758D01*
X124198698Y-88585990D01*
X123805372Y-88978630D01*
X123719052Y-89186512D01*
X123634011Y-88980697D01*
X123241371Y-88587371D01*
X122728101Y-88374243D01*
X122172340Y-88373758D01*
X121658698Y-88585990D01*
X121265372Y-88978630D01*
X121185606Y-89170727D01*
X121131398Y-89039857D01*
X120889214Y-88970392D01*
X120088606Y-89771000D01*
X120889214Y-90571608D01*
X121131398Y-90502143D01*
X121181510Y-90361682D01*
X121263991Y-90561303D01*
X121656631Y-90954629D01*
X121864513Y-91040949D01*
X121658698Y-91125990D01*
X121265372Y-91518630D01*
X121179052Y-91726512D01*
X121094011Y-91520697D01*
X120701371Y-91127371D01*
X120509274Y-91047605D01*
X120640144Y-90993397D01*
X120709609Y-90751213D01*
X119909001Y-89950605D01*
X119108393Y-90751213D01*
X119177858Y-90993397D01*
X119318319Y-91043509D01*
X119118698Y-91125990D01*
X118725372Y-91518630D01*
X118639052Y-91726512D01*
X118554011Y-91520697D01*
X118161371Y-91127371D01*
X117953489Y-91041051D01*
X118159304Y-90956010D01*
X118552630Y-90563370D01*
X118632396Y-90371273D01*
X118686604Y-90502143D01*
X118928788Y-90571608D01*
X119729396Y-89771000D01*
X118928788Y-88970392D01*
X118686604Y-89039857D01*
X118636492Y-89180318D01*
X118554011Y-88980697D01*
X118364433Y-88790787D01*
X119108393Y-88790787D01*
X119909001Y-89591395D01*
X120709609Y-88790787D01*
X120640144Y-88548603D01*
X120116699Y-88361856D01*
X119561633Y-88389638D01*
X119177858Y-88548603D01*
X119108393Y-88790787D01*
X118364433Y-88790787D01*
X118161371Y-88587371D01*
X117648101Y-88374243D01*
X117092340Y-88373758D01*
X116578698Y-88585990D01*
X116185372Y-88978630D01*
X116099052Y-89186512D01*
X116014011Y-88980697D01*
X115621371Y-88587371D01*
X115108101Y-88374243D01*
X114552340Y-88373758D01*
X114038698Y-88585990D01*
X113645372Y-88978630D01*
X113559052Y-89186512D01*
X113474011Y-88980697D01*
X113081371Y-88587371D01*
X112568101Y-88374243D01*
X112012340Y-88373758D01*
X111498698Y-88585990D01*
X111105372Y-88978630D01*
X111019052Y-89186512D01*
X110934011Y-88980697D01*
X110541371Y-88587371D01*
X110028101Y-88374243D01*
X109472340Y-88373758D01*
X108958698Y-88585990D01*
X108565372Y-88978630D01*
X108479052Y-89186512D01*
X108394011Y-88980697D01*
X108001371Y-88587371D01*
X107488101Y-88374243D01*
X106932340Y-88373758D01*
X106418698Y-88585990D01*
X106025372Y-88978630D01*
X105939052Y-89186512D01*
X105854011Y-88980697D01*
X105461371Y-88587371D01*
X104948101Y-88374243D01*
X104392340Y-88373758D01*
X103878698Y-88585990D01*
X103485372Y-88978630D01*
X103405606Y-89170727D01*
X103351398Y-89039857D01*
X103109214Y-88970392D01*
X102308606Y-89771000D01*
X103109214Y-90571608D01*
X103351398Y-90502143D01*
X103401510Y-90361682D01*
X103483991Y-90561303D01*
X103876631Y-90954629D01*
X104084513Y-91040949D01*
X103878698Y-91125990D01*
X103485372Y-91518630D01*
X103399052Y-91726512D01*
X103314011Y-91520697D01*
X102921371Y-91127371D01*
X102729274Y-91047605D01*
X102860144Y-90993397D01*
X102929609Y-90751213D01*
X102129001Y-89950605D01*
X101328393Y-90751213D01*
X101397858Y-90993397D01*
X101538319Y-91043509D01*
X101338698Y-91125990D01*
X100945372Y-91518630D01*
X100732244Y-92031900D01*
X100731759Y-92587661D01*
X100943991Y-93101303D01*
X101336631Y-93494629D01*
X101849901Y-93707757D01*
X102405662Y-93708242D01*
X102919304Y-93496010D01*
X103312630Y-93103370D01*
X103398950Y-92895488D01*
X103483991Y-93101303D01*
X103876631Y-93494629D01*
X104389901Y-93707757D01*
X104945662Y-93708242D01*
X105459304Y-93496010D01*
X105852630Y-93103370D01*
X105938950Y-92895488D01*
X106023991Y-93101303D01*
X106416631Y-93494629D01*
X106929901Y-93707757D01*
X107485662Y-93708242D01*
X107999304Y-93496010D01*
X108204458Y-93291213D01*
X108948393Y-93291213D01*
X109017858Y-93533397D01*
X109541303Y-93720144D01*
X110096369Y-93692362D01*
X110480144Y-93533397D01*
X110549609Y-93291213D01*
X109749001Y-92490605D01*
X108948393Y-93291213D01*
X108204458Y-93291213D01*
X108392630Y-93103370D01*
X108472396Y-92911273D01*
X108526604Y-93042143D01*
X108768788Y-93111608D01*
X109569396Y-92311000D01*
X108768788Y-91510392D01*
X108526604Y-91579857D01*
X108476492Y-91720318D01*
X108394011Y-91520697D01*
X108001371Y-91127371D01*
X107793489Y-91041051D01*
X107999304Y-90956010D01*
X108392630Y-90563370D01*
X108478950Y-90355488D01*
X108563991Y-90561303D01*
X108956631Y-90954629D01*
X109148728Y-91034395D01*
X109017858Y-91088603D01*
X108948393Y-91330787D01*
X109749001Y-92131395D01*
X110549609Y-91330787D01*
X110480144Y-91088603D01*
X110339683Y-91038491D01*
X110539304Y-90956010D01*
X110932630Y-90563370D01*
X111018950Y-90355488D01*
X111103991Y-90561303D01*
X111496631Y-90954629D01*
X111704513Y-91040949D01*
X111498698Y-91125990D01*
X111105372Y-91518630D01*
X111025606Y-91710727D01*
X110971398Y-91579857D01*
X110729214Y-91510392D01*
X109928606Y-92311000D01*
X110729214Y-93111608D01*
X110971398Y-93042143D01*
X111021510Y-92901682D01*
X111103991Y-93101303D01*
X111496631Y-93494629D01*
X112009901Y-93707757D01*
X112565662Y-93708242D01*
X113079304Y-93496010D01*
X113284458Y-93291213D01*
X114028393Y-93291213D01*
X114097858Y-93533397D01*
X114621303Y-93720144D01*
X115176369Y-93692362D01*
X115560144Y-93533397D01*
X115629609Y-93291213D01*
X114829001Y-92490605D01*
X114028393Y-93291213D01*
X113284458Y-93291213D01*
X113472630Y-93103370D01*
X113552396Y-92911273D01*
X113606604Y-93042143D01*
X113848788Y-93111608D01*
X114649396Y-92311000D01*
X113848788Y-91510392D01*
X113606604Y-91579857D01*
X113556492Y-91720318D01*
X113474011Y-91520697D01*
X113081371Y-91127371D01*
X112873489Y-91041051D01*
X113079304Y-90956010D01*
X113472630Y-90563370D01*
X113558950Y-90355488D01*
X113643991Y-90561303D01*
X114036631Y-90954629D01*
X114228728Y-91034395D01*
X114097858Y-91088603D01*
X114028393Y-91330787D01*
X114829001Y-92131395D01*
X115629609Y-91330787D01*
X115560144Y-91088603D01*
X115419683Y-91038491D01*
X115619304Y-90956010D01*
X116012630Y-90563370D01*
X116098950Y-90355488D01*
X116183991Y-90561303D01*
X116576631Y-90954629D01*
X116784513Y-91040949D01*
X116578698Y-91125990D01*
X116185372Y-91518630D01*
X116105606Y-91710727D01*
X116051398Y-91579857D01*
X115809214Y-91510392D01*
X115008606Y-92311000D01*
X115809214Y-93111608D01*
X116051398Y-93042143D01*
X116101510Y-92901682D01*
X116183991Y-93101303D01*
X116576631Y-93494629D01*
X117089901Y-93707757D01*
X117645662Y-93708242D01*
X118159304Y-93496010D01*
X118552630Y-93103370D01*
X118638950Y-92895488D01*
X118723991Y-93101303D01*
X119116631Y-93494629D01*
X119629901Y-93707757D01*
X120185662Y-93708242D01*
X120699304Y-93496010D01*
X121092630Y-93103370D01*
X121178950Y-92895488D01*
X121263991Y-93101303D01*
X121656631Y-93494629D01*
X122169901Y-93707757D01*
X122725662Y-93708242D01*
X123239304Y-93496010D01*
X123632630Y-93103370D01*
X123718950Y-92895488D01*
X123803991Y-93101303D01*
X124196631Y-93494629D01*
X124709901Y-93707757D01*
X125265662Y-93708242D01*
X125779304Y-93496010D01*
X125984458Y-93291213D01*
X126728393Y-93291213D01*
X126797858Y-93533397D01*
X127321303Y-93720144D01*
X127876369Y-93692362D01*
X128260144Y-93533397D01*
X128329609Y-93291213D01*
X127529001Y-92490605D01*
X126728393Y-93291213D01*
X125984458Y-93291213D01*
X126172630Y-93103370D01*
X126252396Y-92911273D01*
X126306604Y-93042143D01*
X126548788Y-93111608D01*
X127349396Y-92311000D01*
X126548788Y-91510392D01*
X126306604Y-91579857D01*
X126256492Y-91720318D01*
X126174011Y-91520697D01*
X125781371Y-91127371D01*
X125573489Y-91041051D01*
X125779304Y-90956010D01*
X126172630Y-90563370D01*
X126258950Y-90355488D01*
X126343991Y-90561303D01*
X126736631Y-90954629D01*
X126928728Y-91034395D01*
X126797858Y-91088603D01*
X126728393Y-91330787D01*
X127529001Y-92131395D01*
X128329609Y-91330787D01*
X128260144Y-91088603D01*
X128119683Y-91038491D01*
X128319304Y-90956010D01*
X128712630Y-90563370D01*
X128798950Y-90355488D01*
X128883991Y-90561303D01*
X129276631Y-90954629D01*
X129484513Y-91040949D01*
X129278698Y-91125990D01*
X128885372Y-91518630D01*
X128805606Y-91710727D01*
X128751398Y-91579857D01*
X128509214Y-91510392D01*
X127708606Y-92311000D01*
X128509214Y-93111608D01*
X128751398Y-93042143D01*
X128801510Y-92901682D01*
X128883991Y-93101303D01*
X129276631Y-93494629D01*
X129789901Y-93707757D01*
X130345662Y-93708242D01*
X130859304Y-93496010D01*
X131252630Y-93103370D01*
X131338950Y-92895488D01*
X131423991Y-93101303D01*
X131816631Y-93494629D01*
X132329901Y-93707757D01*
X132885662Y-93708242D01*
X133399304Y-93496010D01*
X133604458Y-93291213D01*
X134348393Y-93291213D01*
X134417858Y-93533397D01*
X134941303Y-93720144D01*
X135496369Y-93692362D01*
X135880144Y-93533397D01*
X135949609Y-93291213D01*
X135149001Y-92490605D01*
X134348393Y-93291213D01*
X133604458Y-93291213D01*
X133792630Y-93103370D01*
X133872396Y-92911273D01*
X133926604Y-93042143D01*
X134168788Y-93111608D01*
X134969396Y-92311000D01*
X134168788Y-91510392D01*
X133926604Y-91579857D01*
X133876492Y-91720318D01*
X133794011Y-91520697D01*
X133401371Y-91127371D01*
X133193489Y-91041051D01*
X133399304Y-90956010D01*
X133792630Y-90563370D01*
X133878950Y-90355488D01*
X133963991Y-90561303D01*
X134356631Y-90954629D01*
X134548728Y-91034395D01*
X134417858Y-91088603D01*
X134348393Y-91330787D01*
X135149001Y-92131395D01*
X135949609Y-91330787D01*
X135880144Y-91088603D01*
X135739683Y-91038491D01*
X135939304Y-90956010D01*
X136332630Y-90563370D01*
X136418950Y-90355488D01*
X136503991Y-90561303D01*
X136896631Y-90954629D01*
X137104513Y-91040949D01*
X136898698Y-91125990D01*
X136505372Y-91518630D01*
X136425606Y-91710727D01*
X136371398Y-91579857D01*
X136129214Y-91510392D01*
X135328606Y-92311000D01*
X136129214Y-93111608D01*
X136371398Y-93042143D01*
X136421510Y-92901682D01*
X136503991Y-93101303D01*
X136896631Y-93494629D01*
X137409901Y-93707757D01*
X137965662Y-93708242D01*
X138479304Y-93496010D01*
X138872630Y-93103370D01*
X138958950Y-92895488D01*
X139043991Y-93101303D01*
X139436631Y-93494629D01*
X139528936Y-93532957D01*
X139691600Y-93776402D01*
X141040198Y-95125000D01*
X111125000Y-95125000D01*
X110834160Y-95182852D01*
X110587599Y-95347599D01*
X106932862Y-99002336D01*
X106918362Y-98712632D01*
X106759397Y-98328857D01*
X106517213Y-98259392D01*
X105716605Y-99060000D01*
X105730748Y-99074143D01*
X105551143Y-99253748D01*
X105537000Y-99239605D01*
X104736392Y-100040213D01*
X104805857Y-100282397D01*
X104946318Y-100332509D01*
X104746697Y-100414990D01*
X104353371Y-100807630D01*
X104140243Y-101320900D01*
X104139758Y-101876661D01*
X104351990Y-102390303D01*
X104744630Y-102783629D01*
X104952512Y-102869949D01*
X104746697Y-102954990D01*
X104353371Y-103347630D01*
X104140243Y-103860900D01*
X104139758Y-104416661D01*
X104351990Y-104930303D01*
X104744630Y-105323629D01*
X104952512Y-105409949D01*
X104746697Y-105494990D01*
X104353371Y-105887630D01*
X104140243Y-106400900D01*
X104139758Y-106956661D01*
X104351990Y-107470303D01*
X104744630Y-107863629D01*
X104952512Y-107949949D01*
X104746697Y-108034990D01*
X104353371Y-108427630D01*
X104140243Y-108940900D01*
X104139758Y-109496661D01*
X104351990Y-110010303D01*
X104744630Y-110403629D01*
X104952512Y-110489949D01*
X104746697Y-110574990D01*
X104353371Y-110967630D01*
X104140243Y-111480900D01*
X104139758Y-112036661D01*
X104351990Y-112550303D01*
X104744630Y-112943629D01*
X104936727Y-113023395D01*
X104805857Y-113077603D01*
X104736392Y-113319787D01*
X105537000Y-114120395D01*
X106337608Y-113319787D01*
X106268143Y-113077603D01*
X106127682Y-113027491D01*
X106327303Y-112945010D01*
X106720629Y-112552370D01*
X106933757Y-112039100D01*
X106934242Y-111483339D01*
X106722010Y-110969697D01*
X106329370Y-110576371D01*
X106121488Y-110490051D01*
X106327303Y-110405010D01*
X106720629Y-110012370D01*
X106933757Y-109499100D01*
X106934242Y-108943339D01*
X106722010Y-108429697D01*
X106329370Y-108036371D01*
X106121488Y-107950051D01*
X106327303Y-107865010D01*
X106720629Y-107472370D01*
X106933757Y-106959100D01*
X106934242Y-106403339D01*
X106722010Y-105889697D01*
X106329370Y-105496371D01*
X106121488Y-105410051D01*
X106327303Y-105325010D01*
X106720629Y-104932370D01*
X106933757Y-104419100D01*
X106934242Y-103863339D01*
X106722010Y-103349697D01*
X106329370Y-102956371D01*
X106121488Y-102870051D01*
X106327303Y-102785010D01*
X106720629Y-102392370D01*
X106734070Y-102360000D01*
X110810198Y-102360000D01*
X111857599Y-103407401D01*
X112104160Y-103572148D01*
X112395000Y-103630000D01*
X116872730Y-103630000D01*
X116760243Y-103900900D01*
X116759758Y-104456661D01*
X116971990Y-104970303D01*
X117364630Y-105363629D01*
X117397000Y-105377070D01*
X117397000Y-105482469D01*
X117366697Y-105494990D01*
X116973371Y-105887630D01*
X116760243Y-106400900D01*
X116759758Y-106956661D01*
X116971990Y-107470303D01*
X117364630Y-107863629D01*
X117524228Y-107929900D01*
X117366697Y-107994990D01*
X116973371Y-108387630D01*
X116760243Y-108900900D01*
X116759758Y-109456661D01*
X116971990Y-109970303D01*
X117364630Y-110363629D01*
X117524228Y-110429900D01*
X117366697Y-110494990D01*
X116973371Y-110887630D01*
X116760243Y-111400900D01*
X116759758Y-111956661D01*
X116971990Y-112470303D01*
X117364630Y-112863629D01*
X117524228Y-112929900D01*
X117366697Y-112994990D01*
X116973371Y-113387630D01*
X116760243Y-113900900D01*
X116759758Y-114456661D01*
X116971990Y-114970303D01*
X117364630Y-115363629D01*
X117524228Y-115429900D01*
X117366697Y-115494990D01*
X116973371Y-115887630D01*
X116760243Y-116400900D01*
X116759758Y-116956661D01*
X116971990Y-117470303D01*
X117364630Y-117863629D01*
X117877900Y-118076757D01*
X118433661Y-118077242D01*
X118947303Y-117865010D01*
X119340629Y-117472370D01*
X119354070Y-117440000D01*
X122080000Y-117440000D01*
X122370839Y-117382148D01*
X122617401Y-117217401D01*
X123504802Y-116330000D01*
X124432560Y-116330000D01*
X124432560Y-117490000D01*
X124476838Y-117725317D01*
X124615910Y-117941441D01*
X124828110Y-118086431D01*
X125080000Y-118137440D01*
X126380000Y-118137440D01*
X126615317Y-118093162D01*
X126831441Y-117954090D01*
X126902563Y-117850000D01*
X130403644Y-117850000D01*
X129883644Y-118370000D01*
X115353356Y-118370000D01*
X113109178Y-116125822D01*
X112781510Y-115906882D01*
X112395000Y-115830000D01*
X106502696Y-115830000D01*
X106329370Y-115656371D01*
X106137273Y-115576605D01*
X106268143Y-115522397D01*
X106337608Y-115280213D01*
X105537000Y-114479605D01*
X105522858Y-114493748D01*
X105343253Y-114314143D01*
X105357395Y-114300000D01*
X105716605Y-114300000D01*
X106517213Y-115100608D01*
X106759397Y-115031143D01*
X106946144Y-114507698D01*
X106918362Y-113952632D01*
X106759397Y-113568857D01*
X106517213Y-113499392D01*
X105716605Y-114300000D01*
X105357395Y-114300000D01*
X104556787Y-113499392D01*
X104314603Y-113568857D01*
X104151470Y-114026114D01*
X100705000Y-110579644D01*
X100705000Y-98852302D01*
X104127856Y-98852302D01*
X104155638Y-99407368D01*
X104314603Y-99791143D01*
X104556787Y-99860608D01*
X105357395Y-99060000D01*
X104556787Y-98259392D01*
X104314603Y-98328857D01*
X104127856Y-98852302D01*
X100705000Y-98852302D01*
X100705000Y-98079787D01*
X104736392Y-98079787D01*
X105537000Y-98880395D01*
X106337608Y-98079787D01*
X106268143Y-97837603D01*
X105744698Y-97650856D01*
X105189632Y-97678638D01*
X104805857Y-97837603D01*
X104736392Y-98079787D01*
X100705000Y-98079787D01*
X100705000Y-89563302D01*
X100719857Y-89563302D01*
X100747639Y-90118368D01*
X100906604Y-90502143D01*
X101148788Y-90571608D01*
X101949396Y-89771000D01*
X101148788Y-88970392D01*
X100906604Y-89039857D01*
X100719857Y-89563302D01*
X100705000Y-89563302D01*
X100705000Y-88790787D01*
X101328393Y-88790787D01*
X102129001Y-89591395D01*
X102929609Y-88790787D01*
X102860144Y-88548603D01*
X102336699Y-88361856D01*
X101781633Y-88389638D01*
X101397858Y-88548603D01*
X101328393Y-88790787D01*
X100705000Y-88790787D01*
X100705000Y-84238356D01*
X103161356Y-81782000D01*
X160705304Y-81782000D01*
X160878630Y-81955629D01*
X161391900Y-82168757D01*
X161947661Y-82169242D01*
X162461303Y-81957010D01*
X162636619Y-81782000D01*
X163245304Y-81782000D01*
X163418630Y-81955629D01*
X163931900Y-82168757D01*
X164487661Y-82169242D01*
X165001303Y-81957010D01*
X165176619Y-81782000D01*
X166243000Y-81782000D01*
X166392748Y-81752213D01*
X171538392Y-81752213D01*
X171607857Y-81994397D01*
X172131302Y-82181144D01*
X172686368Y-82153362D01*
X173070143Y-81994397D01*
X173139608Y-81752213D01*
X174078392Y-81752213D01*
X174147857Y-81994397D01*
X174671302Y-82181144D01*
X175226368Y-82153362D01*
X175610143Y-81994397D01*
X175679608Y-81752213D01*
X174879000Y-80951605D01*
X174078392Y-81752213D01*
X173139608Y-81752213D01*
X172339000Y-80951605D01*
X171538392Y-81752213D01*
X166392748Y-81752213D01*
X166629510Y-81705118D01*
X166957178Y-81486178D01*
X167879054Y-80564302D01*
X170929856Y-80564302D01*
X170957638Y-81119368D01*
X171116603Y-81503143D01*
X171358787Y-81572608D01*
X172159395Y-80772000D01*
X172518605Y-80772000D01*
X173319213Y-81572608D01*
X173561397Y-81503143D01*
X173605453Y-81379656D01*
X173656603Y-81503143D01*
X173898787Y-81572608D01*
X174699395Y-80772000D01*
X175058605Y-80772000D01*
X175859213Y-81572608D01*
X176101397Y-81503143D01*
X176288144Y-80979698D01*
X176260362Y-80424632D01*
X176101397Y-80040857D01*
X175859213Y-79971392D01*
X175058605Y-80772000D01*
X174699395Y-80772000D01*
X173898787Y-79971392D01*
X173656603Y-80040857D01*
X173612547Y-80164344D01*
X173561397Y-80040857D01*
X173319213Y-79971392D01*
X172518605Y-80772000D01*
X172159395Y-80772000D01*
X171358787Y-79971392D01*
X171116603Y-80040857D01*
X170929856Y-80564302D01*
X167879054Y-80564302D01*
X168354178Y-80089178D01*
X168552887Y-79791787D01*
X171538392Y-79791787D01*
X172339000Y-80592395D01*
X173139608Y-79791787D01*
X174078392Y-79791787D01*
X174879000Y-80592395D01*
X175679608Y-79791787D01*
X175610143Y-79549603D01*
X175086698Y-79362856D01*
X174531632Y-79390638D01*
X174147857Y-79549603D01*
X174078392Y-79791787D01*
X173139608Y-79791787D01*
X173070143Y-79549603D01*
X172546698Y-79362856D01*
X171991632Y-79390638D01*
X171607857Y-79549603D01*
X171538392Y-79791787D01*
X168552887Y-79791787D01*
X168573118Y-79761510D01*
X168650000Y-79375000D01*
X168650000Y-79082640D01*
X169390060Y-79082640D01*
X169625377Y-79038362D01*
X169841501Y-78899290D01*
X169986491Y-78687090D01*
X170037500Y-78435200D01*
X170037500Y-74935080D01*
X169993222Y-74699763D01*
X169854150Y-74483639D01*
X169641950Y-74338649D01*
X169390060Y-74287640D01*
X165889940Y-74287640D01*
X165654623Y-74331918D01*
X165438499Y-74470990D01*
X165338500Y-74617343D01*
X165338500Y-72763760D01*
X165351613Y-72795418D01*
X165530241Y-72974047D01*
X165763630Y-73070720D01*
X167354250Y-73070720D01*
X167513000Y-72911970D01*
X167513000Y-70812660D01*
X167767000Y-70812660D01*
X167767000Y-72911970D01*
X167925750Y-73070720D01*
X169516370Y-73070720D01*
X169749759Y-72974047D01*
X169928387Y-72795418D01*
X170025060Y-72562029D01*
X170025060Y-70971410D01*
X169866310Y-70812660D01*
X167767000Y-70812660D01*
X167513000Y-70812660D01*
X165413690Y-70812660D01*
X165254940Y-70971410D01*
X165254940Y-71638977D01*
X165155150Y-71483899D01*
X164942950Y-71338909D01*
X164691060Y-71287900D01*
X161190940Y-71287900D01*
X160955623Y-71332178D01*
X160739499Y-71471250D01*
X160594509Y-71683450D01*
X160543500Y-71935340D01*
X160543500Y-75435460D01*
X160587778Y-75670777D01*
X160726850Y-75886901D01*
X160939050Y-76031891D01*
X161190940Y-76082900D01*
X164691060Y-76082900D01*
X164926377Y-76038622D01*
X165142501Y-75899550D01*
X165242500Y-75753197D01*
X165242500Y-78435200D01*
X165286778Y-78670517D01*
X165425850Y-78886641D01*
X165638050Y-79031631D01*
X165889940Y-79082640D01*
X166504004Y-79082640D01*
X165824644Y-79762000D01*
X165176696Y-79762000D01*
X165003370Y-79588371D01*
X164490100Y-79375243D01*
X163934339Y-79374758D01*
X163420697Y-79586990D01*
X163245381Y-79762000D01*
X162636696Y-79762000D01*
X162463370Y-79588371D01*
X161950100Y-79375243D01*
X161394339Y-79374758D01*
X160880697Y-79586990D01*
X160705381Y-79762000D01*
X102743000Y-79762000D01*
X102356490Y-79838882D01*
X102028822Y-80057822D01*
X98980822Y-83105822D01*
X98761882Y-83433490D01*
X98685000Y-83820000D01*
X98685000Y-89580361D01*
X98443061Y-89337999D01*
X97704569Y-89031350D01*
X96904941Y-89030652D01*
X96165915Y-89336012D01*
X95600000Y-89900940D01*
X95293351Y-90639432D01*
X95292653Y-91439060D01*
X94055000Y-91439060D01*
X94055000Y-68452060D01*
X95292653Y-68452060D01*
X95598013Y-69191086D01*
X96162941Y-69757001D01*
X96901433Y-70063650D01*
X97701061Y-70064348D01*
X98440087Y-69758988D01*
X99006002Y-69194060D01*
X99312651Y-68455568D01*
X99312654Y-68452060D01*
X153331653Y-68452060D01*
X153637013Y-69191086D01*
X154201941Y-69757001D01*
X154940433Y-70063650D01*
X155740061Y-70064348D01*
X156479087Y-69758988D01*
X157045002Y-69194060D01*
X157204772Y-68809291D01*
X165254940Y-68809291D01*
X165254940Y-70399910D01*
X165413690Y-70558660D01*
X167513000Y-70558660D01*
X167513000Y-68459350D01*
X167767000Y-68459350D01*
X167767000Y-70558660D01*
X169866310Y-70558660D01*
X170025060Y-70399910D01*
X170025060Y-68809291D01*
X169928387Y-68575902D01*
X169749759Y-68397273D01*
X169516370Y-68300600D01*
X167925750Y-68300600D01*
X167767000Y-68459350D01*
X167513000Y-68459350D01*
X167354250Y-68300600D01*
X165763630Y-68300600D01*
X165530241Y-68397273D01*
X165351613Y-68575902D01*
X165254940Y-68809291D01*
X157204772Y-68809291D01*
X157351651Y-68455568D01*
X157352349Y-67655940D01*
X157046989Y-66916914D01*
X156482061Y-66350999D01*
X155743569Y-66044350D01*
X154943941Y-66043652D01*
X154204915Y-66349012D01*
X153639000Y-66913940D01*
X153332351Y-67652432D01*
X153331653Y-68452060D01*
X99312654Y-68452060D01*
X99313349Y-67655940D01*
X99007989Y-66916914D01*
X98443061Y-66350999D01*
X97704569Y-66044350D01*
X96904941Y-66043652D01*
X96165915Y-66349012D01*
X95600000Y-66913940D01*
X95293351Y-67652432D01*
X95292653Y-68452060D01*
X94055000Y-68452060D01*
X94055000Y-64845000D01*
X176455000Y-64845000D01*
X176455000Y-137720000D01*
G36*
X155768748Y-114920858D02*
X155754605Y-114935000D01*
X155768748Y-114949143D01*
X155589143Y-115128748D01*
X155575000Y-115114605D01*
X155560858Y-115128748D01*
X155381253Y-114949143D01*
X155395395Y-114935000D01*
X155381253Y-114920858D01*
X155560858Y-114741253D01*
X155575000Y-114755395D01*
X155589143Y-114741253D01*
X155768748Y-114920858D01*
X155768748Y-114920858D01*
G37*
X155768748Y-114920858D02*
X155754605Y-114935000D01*
X155768748Y-114949143D01*
X155589143Y-115128748D01*
X155575000Y-115114605D01*
X155560858Y-115128748D01*
X155381253Y-114949143D01*
X155395395Y-114935000D01*
X155381253Y-114920858D01*
X155560858Y-114741253D01*
X155575000Y-114755395D01*
X155589143Y-114741253D01*
X155768748Y-114920858D01*
G36*
X125923748Y-114325858D02*
X125909605Y-114340000D01*
X125923748Y-114354142D01*
X125744143Y-114533748D01*
X125730000Y-114519605D01*
X125715858Y-114533748D01*
X125536252Y-114354142D01*
X125550395Y-114340000D01*
X125536252Y-114325858D01*
X125715858Y-114146252D01*
X125730000Y-114160395D01*
X125744142Y-114146252D01*
X125923748Y-114325858D01*
X125923748Y-114325858D01*
G37*
X125923748Y-114325858D02*
X125909605Y-114340000D01*
X125923748Y-114354142D01*
X125744143Y-114533748D01*
X125730000Y-114519605D01*
X125715858Y-114533748D01*
X125536252Y-114354142D01*
X125550395Y-114340000D01*
X125536252Y-114325858D01*
X125715858Y-114146252D01*
X125730000Y-114160395D01*
X125744142Y-114146252D01*
X125923748Y-114325858D01*
G36*
X133035748Y-114285858D02*
X133021605Y-114300000D01*
X133035748Y-114314143D01*
X132856143Y-114493748D01*
X132842000Y-114479605D01*
X132827858Y-114493748D01*
X132648253Y-114314143D01*
X132662395Y-114300000D01*
X132648253Y-114285858D01*
X132827858Y-114106253D01*
X132842000Y-114120395D01*
X132856143Y-114106253D01*
X133035748Y-114285858D01*
X133035748Y-114285858D01*
G37*
X133035748Y-114285858D02*
X133021605Y-114300000D01*
X133035748Y-114314143D01*
X132856143Y-114493748D01*
X132842000Y-114479605D01*
X132827858Y-114493748D01*
X132648253Y-114314143D01*
X132662395Y-114300000D01*
X132648253Y-114285858D01*
X132827858Y-114106253D01*
X132842000Y-114120395D01*
X132856143Y-114106253D01*
X133035748Y-114285858D01*
G36*
X132041392Y-98079787D02*
X132842000Y-98880395D01*
X133642608Y-98079787D01*
X133595343Y-97915000D01*
X144865288Y-97915000D01*
X144671697Y-97994990D01*
X144278371Y-98387630D01*
X144065243Y-98900900D01*
X144064758Y-99456661D01*
X144276990Y-99970303D01*
X144669630Y-100363629D01*
X144829228Y-100429900D01*
X144671697Y-100494990D01*
X144278371Y-100887630D01*
X144065243Y-101400900D01*
X144064758Y-101956661D01*
X144276990Y-102470303D01*
X144669630Y-102863629D01*
X144829228Y-102929900D01*
X144671697Y-102994990D01*
X144278371Y-103387630D01*
X144065243Y-103900900D01*
X144064758Y-104456661D01*
X144144644Y-104650000D01*
X134142879Y-104650000D01*
X134238757Y-104419100D01*
X134239242Y-103863339D01*
X134027010Y-103349697D01*
X133634370Y-102956371D01*
X133426488Y-102870051D01*
X133632303Y-102785010D01*
X134025629Y-102392370D01*
X134238757Y-101879100D01*
X134239242Y-101323339D01*
X134027010Y-100809697D01*
X133634370Y-100416371D01*
X133442273Y-100336605D01*
X133573143Y-100282397D01*
X133642608Y-100040213D01*
X132842000Y-99239605D01*
X132041392Y-100040213D01*
X132110857Y-100282397D01*
X132251318Y-100332509D01*
X132051697Y-100414990D01*
X131658371Y-100807630D01*
X131445243Y-101320900D01*
X131444758Y-101876661D01*
X131458143Y-101909055D01*
X131257198Y-102110000D01*
X119491098Y-102110000D01*
X119553757Y-101959100D01*
X119554242Y-101403339D01*
X119342010Y-100889697D01*
X118949370Y-100496371D01*
X118789772Y-100430100D01*
X118947303Y-100365010D01*
X119340629Y-99972370D01*
X119553757Y-99459100D01*
X119554242Y-98903339D01*
X119540857Y-98870945D01*
X119559500Y-98852302D01*
X131432856Y-98852302D01*
X131460638Y-99407368D01*
X131619603Y-99791143D01*
X131861787Y-99860608D01*
X132662395Y-99060000D01*
X133021605Y-99060000D01*
X133822213Y-99860608D01*
X134064397Y-99791143D01*
X134251144Y-99267698D01*
X134223362Y-98712632D01*
X134064397Y-98328857D01*
X133822213Y-98259392D01*
X133021605Y-99060000D01*
X132662395Y-99060000D01*
X131861787Y-98259392D01*
X131619603Y-98328857D01*
X131432856Y-98852302D01*
X119559500Y-98852302D01*
X120496802Y-97915000D01*
X132088657Y-97915000D01*
X132041392Y-98079787D01*
X132041392Y-98079787D01*
G37*
X132041392Y-98079787D02*
X132842000Y-98880395D01*
X133642608Y-98079787D01*
X133595343Y-97915000D01*
X144865288Y-97915000D01*
X144671697Y-97994990D01*
X144278371Y-98387630D01*
X144065243Y-98900900D01*
X144064758Y-99456661D01*
X144276990Y-99970303D01*
X144669630Y-100363629D01*
X144829228Y-100429900D01*
X144671697Y-100494990D01*
X144278371Y-100887630D01*
X144065243Y-101400900D01*
X144064758Y-101956661D01*
X144276990Y-102470303D01*
X144669630Y-102863629D01*
X144829228Y-102929900D01*
X144671697Y-102994990D01*
X144278371Y-103387630D01*
X144065243Y-103900900D01*
X144064758Y-104456661D01*
X144144644Y-104650000D01*
X134142879Y-104650000D01*
X134238757Y-104419100D01*
X134239242Y-103863339D01*
X134027010Y-103349697D01*
X133634370Y-102956371D01*
X133426488Y-102870051D01*
X133632303Y-102785010D01*
X134025629Y-102392370D01*
X134238757Y-101879100D01*
X134239242Y-101323339D01*
X134027010Y-100809697D01*
X133634370Y-100416371D01*
X133442273Y-100336605D01*
X133573143Y-100282397D01*
X133642608Y-100040213D01*
X132842000Y-99239605D01*
X132041392Y-100040213D01*
X132110857Y-100282397D01*
X132251318Y-100332509D01*
X132051697Y-100414990D01*
X131658371Y-100807630D01*
X131445243Y-101320900D01*
X131444758Y-101876661D01*
X131458143Y-101909055D01*
X131257198Y-102110000D01*
X119491098Y-102110000D01*
X119553757Y-101959100D01*
X119554242Y-101403339D01*
X119342010Y-100889697D01*
X118949370Y-100496371D01*
X118789772Y-100430100D01*
X118947303Y-100365010D01*
X119340629Y-99972370D01*
X119553757Y-99459100D01*
X119554242Y-98903339D01*
X119540857Y-98870945D01*
X119559500Y-98852302D01*
X131432856Y-98852302D01*
X131460638Y-99407368D01*
X131619603Y-99791143D01*
X131861787Y-99860608D01*
X132662395Y-99060000D01*
X133021605Y-99060000D01*
X133822213Y-99860608D01*
X134064397Y-99791143D01*
X134251144Y-99267698D01*
X134223362Y-98712632D01*
X134064397Y-98328857D01*
X133822213Y-98259392D01*
X133021605Y-99060000D01*
X132662395Y-99060000D01*
X131861787Y-98259392D01*
X131619603Y-98328857D01*
X131432856Y-98852302D01*
X119559500Y-98852302D01*
X120496802Y-97915000D01*
X132088657Y-97915000D01*
X132041392Y-98079787D01*
G36*
X146663991Y-90561303D02*
X147056631Y-90954629D01*
X147264513Y-91040949D01*
X147058698Y-91125990D01*
X146665372Y-91518630D01*
X146585606Y-91710727D01*
X146531398Y-91579857D01*
X146289214Y-91510392D01*
X145488606Y-92311000D01*
X146289214Y-93111608D01*
X146531398Y-93042143D01*
X146581510Y-92901682D01*
X146663991Y-93101303D01*
X147056631Y-93494629D01*
X147569901Y-93707757D01*
X148125662Y-93708242D01*
X148639304Y-93496010D01*
X148814620Y-93321000D01*
X149423305Y-93321000D01*
X149596631Y-93494629D01*
X150109901Y-93707757D01*
X150357618Y-93707973D01*
X150507040Y-93857395D01*
X150495000Y-93855000D01*
X144459802Y-93855000D01*
X143896015Y-93291213D01*
X144508393Y-93291213D01*
X144577858Y-93533397D01*
X145101303Y-93720144D01*
X145656369Y-93692362D01*
X146040144Y-93533397D01*
X146109609Y-93291213D01*
X145309001Y-92490605D01*
X144508393Y-93291213D01*
X143896015Y-93291213D01*
X143830294Y-93225492D01*
X143952630Y-93103370D01*
X144032396Y-92911273D01*
X144086604Y-93042143D01*
X144328788Y-93111608D01*
X145129396Y-92311000D01*
X144328788Y-91510392D01*
X144086604Y-91579857D01*
X144036492Y-91720318D01*
X143954011Y-91520697D01*
X143561371Y-91127371D01*
X143353489Y-91041051D01*
X143559304Y-90956010D01*
X143952630Y-90563370D01*
X144038950Y-90355488D01*
X144123991Y-90561303D01*
X144516631Y-90954629D01*
X144708728Y-91034395D01*
X144577858Y-91088603D01*
X144508393Y-91330787D01*
X145309001Y-92131395D01*
X146109609Y-91330787D01*
X146040144Y-91088603D01*
X145899683Y-91038491D01*
X146099304Y-90956010D01*
X146492630Y-90563370D01*
X146578950Y-90355488D01*
X146663991Y-90561303D01*
X146663991Y-90561303D01*
G37*
X146663991Y-90561303D02*
X147056631Y-90954629D01*
X147264513Y-91040949D01*
X147058698Y-91125990D01*
X146665372Y-91518630D01*
X146585606Y-91710727D01*
X146531398Y-91579857D01*
X146289214Y-91510392D01*
X145488606Y-92311000D01*
X146289214Y-93111608D01*
X146531398Y-93042143D01*
X146581510Y-92901682D01*
X146663991Y-93101303D01*
X147056631Y-93494629D01*
X147569901Y-93707757D01*
X148125662Y-93708242D01*
X148639304Y-93496010D01*
X148814620Y-93321000D01*
X149423305Y-93321000D01*
X149596631Y-93494629D01*
X150109901Y-93707757D01*
X150357618Y-93707973D01*
X150507040Y-93857395D01*
X150495000Y-93855000D01*
X144459802Y-93855000D01*
X143896015Y-93291213D01*
X144508393Y-93291213D01*
X144577858Y-93533397D01*
X145101303Y-93720144D01*
X145656369Y-93692362D01*
X146040144Y-93533397D01*
X146109609Y-93291213D01*
X145309001Y-92490605D01*
X144508393Y-93291213D01*
X143896015Y-93291213D01*
X143830294Y-93225492D01*
X143952630Y-93103370D01*
X144032396Y-92911273D01*
X144086604Y-93042143D01*
X144328788Y-93111608D01*
X145129396Y-92311000D01*
X144328788Y-91510392D01*
X144086604Y-91579857D01*
X144036492Y-91720318D01*
X143954011Y-91520697D01*
X143561371Y-91127371D01*
X143353489Y-91041051D01*
X143559304Y-90956010D01*
X143952630Y-90563370D01*
X144038950Y-90355488D01*
X144123991Y-90561303D01*
X144516631Y-90954629D01*
X144708728Y-91034395D01*
X144577858Y-91088603D01*
X144508393Y-91330787D01*
X145309001Y-92131395D01*
X146109609Y-91330787D01*
X146040144Y-91088603D01*
X145899683Y-91038491D01*
X146099304Y-90956010D01*
X146492630Y-90563370D01*
X146578950Y-90355488D01*
X146663991Y-90561303D01*
M02*
