M48
;DRILL file {KiCad 4.0.2-stable} date 13/03/2016 19:13:29
;FORMAT={-:-/ absolute / inch / decimal}
FMAT,2
INCH,TZ
T1C0.030
T2C0.031
T3C0.039
T4C0.040
%
G90
G05
M72
T1
X4.0208Y-3.5343
X4.0208Y-3.6343
X4.1208Y-3.5343
X4.1208Y-3.6343
X4.155Y-3.9
X4.155Y-4.
X4.155Y-4.1
X4.155Y-4.2
X4.155Y-4.3
X4.155Y-4.4
X4.155Y-4.5
X4.155Y-4.6
X4.2208Y-3.5343
X4.2208Y-3.6343
X4.3208Y-3.5343
X4.3208Y-3.6343
X4.4208Y-3.5343
X4.4208Y-3.6343
X4.5208Y-3.5343
X4.5208Y-3.6343
X4.6208Y-3.5343
X4.6208Y-3.6343
X4.6519Y-3.9047
X4.6519Y-4.0031
X4.6519Y-4.1016
X4.6519Y-4.2
X4.6519Y-4.2984
X4.6519Y-4.3969
X4.6519Y-4.4953
X4.6519Y-4.5937
X4.7208Y-3.5343
X4.7208Y-3.6343
X4.8208Y-3.5343
X4.8208Y-3.6343
X4.9208Y-3.5343
X4.9208Y-3.6343
X5.0208Y-3.5343
X5.0208Y-3.6343
X5.1208Y-3.5343
X5.1208Y-3.6343
X5.2208Y-3.5343
X5.2208Y-3.6343
X5.23Y-3.9
X5.23Y-4.
X5.23Y-4.1
X5.23Y-4.2
X5.23Y-4.3
X5.23Y-4.4
X5.23Y-4.5
X5.23Y-4.6
X5.3208Y-3.5343
X5.3208Y-3.6343
X5.4208Y-3.5343
X5.4208Y-3.6343
X5.5208Y-3.5343
X5.5208Y-3.6343
X5.6208Y-3.5343
X5.6208Y-3.6343
X5.7208Y-3.5343
X5.7208Y-3.6343
X5.7269Y-3.9047
X5.7269Y-4.0031
X5.7269Y-4.1016
X5.7269Y-4.2
X5.7269Y-4.2984
X5.7269Y-4.3969
X5.7269Y-4.4953
X5.7269Y-4.5937
X5.8208Y-3.5343
X5.8208Y-3.6343
X5.9208Y-3.5343
X5.9208Y-3.6343
X6.125Y-4.225
X6.125Y-4.325
X6.125Y-4.425
X6.125Y-4.525
X6.125Y-4.625
X6.125Y-4.725
X6.125Y-4.825
X6.125Y-4.925
X6.125Y-5.025
X6.125Y-5.125
X6.125Y-5.225
X6.125Y-5.325
X6.365Y-3.18
X6.365Y-3.91
X6.465Y-3.18
X6.465Y-3.91
X6.725Y-4.225
X6.725Y-4.325
X6.725Y-4.425
X6.725Y-4.525
X6.725Y-4.625
X6.725Y-4.725
X6.725Y-4.825
X6.725Y-4.925
X6.725Y-5.025
X6.725Y-5.125
X6.725Y-5.225
X6.725Y-5.325
X6.785Y-3.18
X6.785Y-3.91
X6.885Y-3.18
X6.885Y-3.91
T2
X3.875Y-4.5016
X3.875Y-4.6
X4.95Y-4.5016
X4.95Y-4.6
T4
X4.3Y-5.075
X4.3Y-5.3
X4.4Y-5.075
X4.4Y-5.3
X4.5Y-5.075
X4.5Y-5.3
X4.6Y-5.075
X4.6Y-5.3
X4.95Y-5.1
X4.95Y-5.2
X4.95Y-5.3
X5.375Y-5.1
X5.375Y-5.3
X5.475Y-5.1
X5.475Y-5.3
X5.575Y-5.1
X5.575Y-5.3
X5.675Y-5.1
X5.675Y-5.3
X6.05Y-3.85
X6.05Y-3.95
X6.15Y-3.85
X6.15Y-3.95
T3
X6.415Y-2.8617G85X6.415Y-2.9404
G05
X6.6393Y-2.7829G85X6.5606Y-2.7829
G05
X6.6393Y-3.0191G85X6.5606Y-3.0191
G05
T0
M30
